<?xml version="1.0" encoding="UTF-8" standalone="no"?><svg xmlns="http://www.w3.org/2000/svg" xmlns:xlink="http://www.w3.org/1999/xlink" contentScriptType="application/ecmascript" contentStyleType="text/css" height="2436px" preserveAspectRatio="none" style="width:823px;height:2436px;background:#FFFFFF;" version="1.1" viewBox="0 0 823 2436" width="823px" zoomAndPan="magnify"><defs><filter height="300%" id="f127qbjtx6kkt7" width="300%" x="-1" y="-1"><feGaussianBlur result="blurOut" stdDeviation="2.0"/><feColorMatrix in="blurOut" result="blurOut2" type="matrix" values="0 0 0 0 0 0 0 0 0 0 0 0 0 0 0 0 0 0 .4 0"/><feOffset dx="4.0" dy="4.0" in="blurOut2" result="blurOut3"/><feBlend in="SourceGraphic" in2="blurOut3" mode="normal"/></filter></defs><g><rect fill="#FFFFFF" filter="url(#f127qbjtx6kkt7)" height="511.5742" style="stroke:#000000;stroke-width:2.0;" width="795.5" x="11" y="11"/><path d="M203,11 L203,21.6094 L193,31.6094 L11,31.6094 " fill="none" style="stroke:#000000;stroke-width:2.0;"/><text fill="#000000" font-family="sans-serif" font-size="14" font-weight="bold" lengthAdjust="spacing" textLength="57" x="14" y="26.5332">fanction</text><text fill="#000000" font-family="sans-serif" font-size="14" lengthAdjust="spacing" textLength="121" x="75" y="26.5332">henkei(Hand hand)</text><ellipse cx="408" cy="51.6094" fill="#000000" filter="url(#f127qbjtx6kkt7)" rx="10" ry="10" style="stroke:none;stroke-width:1.0;"/><rect fill="#FEFECE" filter="url(#f127qbjtx6kkt7)" height="35.0938" rx="12.5" ry="12.5" style="stroke:#A80036;stroke-width:1.5;" width="246" x="285" y="81.6094"/><text fill="#000000" font-family="sans-serif" font-size="12" lengthAdjust="spacing" textLength="226" x="295" y="104.0664">getPick()を呼び出し、返り値をpickに格納</text><rect fill="#FEFECE" filter="url(#f127qbjtx6kkt7)" height="35.0938" rx="12.5" ry="12.5" style="stroke:#A80036;stroke-width:1.5;" width="198" x="309" y="136.7031"/><text fill="#000000" font-family="sans-serif" font-size="12" lengthAdjust="spacing" textLength="178" x="319" y="159.1602">updateNearestPoint()を呼び出す</text><rect fill="#FEFECE" filter="url(#f127qbjtx6kkt7)" height="35.0938" rx="12.5" ry="12.5" style="stroke:#A80036;stroke-width:1.5;" width="347" x="234.5" y="240.7148"/><text fill="#000000" font-family="sans-serif" font-size="12" lengthAdjust="spacing" textLength="327" x="244.5" y="263.1719">"pointerに最も近いpoint"の座標を更新（pointerの方へ移動）</text><polygon fill="#FEFECE" filter="url(#f127qbjtx6kkt7)" points="366.5,295.8086,449.5,295.8086,461.5,307.8086,449.5,319.8086,366.5,319.8086,354.5,307.8086,366.5,295.8086" style="stroke:#A80036;stroke-width:1.5;"/><text fill="#000000" font-family="sans-serif" font-size="11" lengthAdjust="spacing" textLength="83" x="366.5" y="312.3096">ポリゴンの形は?</text><rect fill="#FEFECE" filter="url(#f127qbjtx6kkt7)" height="35.0938" rx="12.5" ry="12.5" style="stroke:#A80036;stroke-width:1.5;" width="455" x="23" y="357.4805"/><text fill="#000000" font-family="sans-serif" font-size="12" lengthAdjust="spacing" textLength="435" x="33" y="379.9375">"pointerに最も近いpoint"周辺の、点の座標を更新（pointerの方へ少しだけ移動）</text><rect fill="#FEFECE" filter="url(#f127qbjtx6kkt7)" height="35.0938" rx="12.5" ry="12.5" style="stroke:#A80036;stroke-width:1.5;" width="80" x="498" y="357.4805"/><text fill="#000000" font-family="sans-serif" font-size="12" lengthAdjust="spacing" textLength="60" x="508" y="379.9375">何もしない</text><rect fill="#FEFECE" filter="url(#f127qbjtx6kkt7)" height="35.0938" rx="12.5" ry="12.5" style="stroke:#A80036;stroke-width:1.5;" width="80" x="595.5" y="357.4805"/><text fill="#000000" font-family="sans-serif" font-size="12" lengthAdjust="spacing" textLength="60" x="605.5" y="379.9375">何もしない</text><rect fill="#FEFECE" filter="url(#f127qbjtx6kkt7)" height="35.0938" rx="12.5" ry="12.5" style="stroke:#A80036;stroke-width:1.5;" width="80" x="685.5" y="357.4805"/><text fill="#000000" font-family="sans-serif" font-size="12" lengthAdjust="spacing" textLength="60" x="695.5" y="379.9375">何もしない</text><polygon fill="#FEFECE" filter="url(#f127qbjtx6kkt7)" points="408,402.5742,408,402.5742,420,414.5742,408,426.5742,408,426.5742,396,414.5742,408,402.5742" style="stroke:#A80036;stroke-width:1.5;"/><polygon fill="#FEFECE" filter="url(#f127qbjtx6kkt7)" points="371,191.7969,445,191.7969,457,203.7969,445,215.7969,371,215.7969,359,203.7969,371,191.7969" style="stroke:#A80036;stroke-width:1.5;"/><text fill="#000000" font-family="sans-serif" font-size="11" lengthAdjust="spacing" textLength="18" x="412" y="227.2158">yes</text><text fill="#000000" font-family="sans-serif" font-size="11" lengthAdjust="spacing" textLength="74" x="371" y="208.2979">pickが小さい？</text><polygon fill="#FEFECE" filter="url(#f127qbjtx6kkt7)" points="408,446.5742,420,458.5742,408,470.5742,396,458.5742,408,446.5742" style="stroke:#A80036;stroke-width:1.5;"/><ellipse cx="408" cy="500.5742" fill="#FFFFFF" filter="url(#f127qbjtx6kkt7)" rx="10" ry="10" style="stroke:#000000;stroke-width:1.5;"/><line style="stroke:#000000;stroke-width:2.5;" x1="401.8128" x2="414.1872" y1="494.387" y2="506.7614"/><line style="stroke:#000000;stroke-width:2.5;" x1="414.1872" x2="401.8128" y1="494.387" y2="506.7614"/><rect fill="#FFFFFF" filter="url(#f127qbjtx6kkt7)" height="746.8711" style="stroke:#000000;stroke-width:2.0;" width="352.5" x="248.5" y="532.5742"/><path d="M437.5,532.5742 L437.5,543.1836 L427.5,553.1836 L248.5,553.1836 " fill="none" style="stroke:#000000;stroke-width:2.0;"/><text fill="#000000" font-family="sans-serif" font-size="14" font-weight="bold" lengthAdjust="spacing" textLength="58" x="251.5" y="548.1074">function</text><text fill="#000000" font-family="sans-serif" font-size="14" lengthAdjust="spacing" textLength="117" x="313.5" y="548.1074">kaiten(Hand hand)</text><ellipse cx="408" cy="573.1836" fill="#000000" filter="url(#f127qbjtx6kkt7)" rx="10" ry="10" style="stroke:none;stroke-width:1.0;"/><rect fill="#FEFECE" filter="url(#f127qbjtx6kkt7)" height="35.0938" rx="12.5" ry="12.5" style="stroke:#A80036;stroke-width:1.5;" width="246" x="285" y="603.1836"/><text fill="#000000" font-family="sans-serif" font-size="12" lengthAdjust="spacing" textLength="226" x="295" y="625.6406">getPick()を呼び出し、返り値をpickに格納</text><rect fill="#FEFECE" filter="url(#f127qbjtx6kkt7)" height="50.1875" rx="12.5" ry="12.5" style="stroke:#A80036;stroke-width:1.5;" width="164" x="326" y="707.1953"/><text fill="#000000" font-family="sans-serif" font-size="12" lengthAdjust="spacing" textLength="60" x="336" y="729.6523">ループ開始</text><text fill="#000000" font-family="sans-serif" font-size="12" lengthAdjust="spacing" textLength="144" x="336" y="744.7461">「全ての頂点を１個ずつ」</text><rect fill="#FEFECE" filter="url(#f127qbjtx6kkt7)" height="35.0938" rx="12.5" ry="12.5" style="stroke:#A80036;stroke-width:1.5;" width="267" x="274.5" y="821.3828"/><text fill="#000000" font-family="sans-serif" font-size="12" lengthAdjust="spacing" textLength="247" x="284.5" y="843.8398">pointerの移動量から、x軸回りの回転量を計算</text><rect fill="#FEFECE" filter="url(#f127qbjtx6kkt7)" height="35.0938" rx="12.5" ry="12.5" style="stroke:#A80036;stroke-width:1.5;" width="189" x="313.5" y="876.4766"/><text fill="#000000" font-family="sans-serif" font-size="12" lengthAdjust="spacing" textLength="169" x="323.5" y="898.9336">座標の更新(x軸回りに回転移動)</text><rect fill="#FEFECE" filter="url(#f127qbjtx6kkt7)" height="35.0938" rx="12.5" ry="12.5" style="stroke:#A80036;stroke-width:1.5;" width="279" x="268.5" y="931.5703"/><text fill="#000000" font-family="sans-serif" font-size="12" lengthAdjust="spacing" textLength="259" x="278.5" y="954.0273">pointerでの移動量から、y軸回りの回転量を計算</text><rect fill="#FEFECE" filter="url(#f127qbjtx6kkt7)" height="35.0938" rx="12.5" ry="12.5" style="stroke:#A80036;stroke-width:1.5;" width="189" x="313.5" y="994.1641"/><text fill="#000000" font-family="sans-serif" font-size="12" lengthAdjust="spacing" textLength="169" x="323.5" y="1016.6211">座標の更新(y軸回りに回転移動)</text><rect fill="#FEFECE" filter="url(#f127qbjtx6kkt7)" height="35.0938" rx="12.5" ry="12.5" style="stroke:#A80036;stroke-width:1.5;" width="267" x="274.5" y="1049.2578"/><text fill="#000000" font-family="sans-serif" font-size="12" lengthAdjust="spacing" textLength="247" x="284.5" y="1071.7148">pointerの移動量から、z軸回りの回転量を計算</text><rect fill="#FEFECE" filter="url(#f127qbjtx6kkt7)" height="35.0938" rx="12.5" ry="12.5" style="stroke:#A80036;stroke-width:1.5;" width="189" x="313.5" y="1104.3516"/><text fill="#000000" font-family="sans-serif" font-size="12" lengthAdjust="spacing" textLength="169" x="323.5" y="1126.8086">座標の更新(z軸回りに回転移動)</text><polygon fill="#FEFECE" filter="url(#f127qbjtx6kkt7)" points="408,777.3828,420,789.3828,408,801.3828,396,789.3828,408,777.3828" style="stroke:#A80036;stroke-width:1.5;"/><polygon fill="#FEFECE" filter="url(#f127qbjtx6kkt7)" points="336.5,1159.4453,479.5,1159.4453,491.5,1171.4453,479.5,1183.4453,336.5,1183.4453,324.5,1171.4453,336.5,1159.4453" style="stroke:#A80036;stroke-width:1.5;"/><text fill="#000000" font-family="sans-serif" font-size="11" lengthAdjust="spacing" textLength="143" x="336.5" y="1175.9463">全ての頂点の処理を終えた？</text><polygon fill="#FEFECE" filter="url(#f127qbjtx6kkt7)" points="371,658.2773,445,658.2773,457,670.2773,445,682.2773,371,682.2773,359,670.2773,371,658.2773" style="stroke:#A80036;stroke-width:1.5;"/><text fill="#000000" font-family="sans-serif" font-size="11" lengthAdjust="spacing" textLength="18" x="412" y="693.6963">yes</text><text fill="#000000" font-family="sans-serif" font-size="11" lengthAdjust="spacing" textLength="74" x="371" y="674.7783">pickが小さい？</text><polygon fill="#FEFECE" filter="url(#f127qbjtx6kkt7)" points="408,1203.4453,420,1215.4453,408,1227.4453,396,1215.4453,408,1203.4453" style="stroke:#A80036;stroke-width:1.5;"/><ellipse cx="408" cy="1257.4453" fill="#FFFFFF" filter="url(#f127qbjtx6kkt7)" rx="10" ry="10" style="stroke:#000000;stroke-width:1.5;"/><line style="stroke:#000000;stroke-width:2.5;" x1="401.8128" x2="414.1872" y1="1251.2581" y2="1263.6325"/><line style="stroke:#000000;stroke-width:2.5;" x1="414.1872" x2="401.8128" y1="1251.2581" y2="1263.6325"/><rect fill="#FFFFFF" filter="url(#f127qbjtx6kkt7)" height="518.9961" style="stroke:#000000;stroke-width:2.0;" width="276" x="276" y="1289.4453"/><path d="M520,1289.4453 L520,1300.0547 L510,1310.0547 L276,1310.0547 " fill="none" style="stroke:#000000;stroke-width:2.0;"/><text fill="#000000" font-family="sans-serif" font-size="14" font-weight="bold" lengthAdjust="spacing" textLength="58" x="279" y="1304.9785">function</text><text fill="#000000" font-family="sans-serif" font-size="14" lengthAdjust="spacing" textLength="172" x="341" y="1304.9785">kakudai(HandList handList)</text><ellipse cx="408" cy="1330.0547" fill="#000000" filter="url(#f127qbjtx6kkt7)" rx="10" ry="10" style="stroke:none;stroke-width:1.0;"/><rect fill="#FEFECE" filter="url(#f127qbjtx6kkt7)" height="35.0938" rx="12.5" ry="12.5" style="stroke:#A80036;stroke-width:1.5;" width="152" x="332" y="1360.0547"/><text fill="#000000" font-family="sans-serif" font-size="12" lengthAdjust="spacing" textLength="132" x="342" y="1382.5117">両手の各指を位置を取得</text><rect fill="#FEFECE" filter="url(#f127qbjtx6kkt7)" height="35.0938" rx="12.5" ry="12.5" style="stroke:#A80036;stroke-width:1.5;" width="224" x="296" y="1464.0664"/><text fill="#000000" font-family="sans-serif" font-size="12" lengthAdjust="spacing" textLength="204" x="306" y="1486.5234">両手の人差し指の距離から倍率を計算</text><rect fill="#FEFECE" filter="url(#f127qbjtx6kkt7)" height="50.1875" rx="12.5" ry="12.5" style="stroke:#A80036;stroke-width:1.5;" width="176" x="320" y="1519.1602"/><text fill="#000000" font-family="sans-serif" font-size="12" lengthAdjust="spacing" textLength="60" x="330" y="1541.6172">ループ開始</text><text fill="#000000" font-family="sans-serif" font-size="12" lengthAdjust="spacing" textLength="144" x="342" y="1556.7109">「全ての頂点を１個ずつ」</text><rect fill="#FEFECE" filter="url(#f127qbjtx6kkt7)" height="35.0938" rx="12.5" ry="12.5" style="stroke:#A80036;stroke-width:1.5;" width="160" x="328" y="1633.3477"/><text fill="#000000" font-family="sans-serif" font-size="12" lengthAdjust="spacing" textLength="140" x="338" y="1655.8047">座標の更新(倍率を掛ける)</text><polygon fill="#FEFECE" filter="url(#f127qbjtx6kkt7)" points="408,1589.3477,420,1601.3477,408,1613.3477,396,1601.3477,408,1589.3477" style="stroke:#A80036;stroke-width:1.5;"/><polygon fill="#FEFECE" filter="url(#f127qbjtx6kkt7)" points="336.5,1688.4414,479.5,1688.4414,491.5,1700.4414,479.5,1712.4414,336.5,1712.4414,324.5,1700.4414,336.5,1688.4414" style="stroke:#A80036;stroke-width:1.5;"/><text fill="#000000" font-family="sans-serif" font-size="11" lengthAdjust="spacing" textLength="143" x="336.5" y="1704.9424">全ての頂点の処理を終えた？</text><polygon fill="#FEFECE" filter="url(#f127qbjtx6kkt7)" points="336.5,1415.1484,479.5,1415.1484,491.5,1427.1484,479.5,1439.1484,336.5,1439.1484,324.5,1427.1484,336.5,1415.1484" style="stroke:#A80036;stroke-width:1.5;"/><text fill="#000000" font-family="sans-serif" font-size="11" lengthAdjust="spacing" textLength="18" x="412" y="1450.5674">yes</text><text fill="#000000" font-family="sans-serif" font-size="11" lengthAdjust="spacing" textLength="143" x="336.5" y="1431.6494">両手の人差し指が近づいた？</text><polygon fill="#FEFECE" filter="url(#f127qbjtx6kkt7)" points="408,1732.4414,420,1744.4414,408,1756.4414,396,1744.4414,408,1732.4414" style="stroke:#A80036;stroke-width:1.5;"/><ellipse cx="408" cy="1786.4414" fill="#FFFFFF" filter="url(#f127qbjtx6kkt7)" rx="10" ry="10" style="stroke:#000000;stroke-width:1.5;"/><line style="stroke:#000000;stroke-width:2.5;" x1="401.8128" x2="414.1872" y1="1780.2542" y2="1792.6286"/><line style="stroke:#000000;stroke-width:2.5;" x1="414.1872" x2="401.8128" y1="1780.2542" y2="1792.6286"/><rect fill="#FFFFFF" filter="url(#f127qbjtx6kkt7)" height="267.8906" style="stroke:#000000;stroke-width:2.0;" width="260" x="278" y="1818.4414"/><path d="M475,1818.4414 L475,1829.0508 L465,1839.0508 L278,1839.0508 " fill="none" style="stroke:#000000;stroke-width:2.0;"/><text fill="#000000" font-family="sans-serif" font-size="14" font-weight="bold" lengthAdjust="spacing" textLength="58" x="281" y="1833.9746">function</text><text fill="#000000" font-family="sans-serif" font-size="14" lengthAdjust="spacing" textLength="125" x="343" y="1833.9746">getPick(Hand hand)</text><ellipse cx="408" cy="1859.0508" fill="#000000" filter="url(#f127qbjtx6kkt7)" rx="10" ry="10" style="stroke:none;stroke-width:1.0;"/><rect fill="#FEFECE" filter="url(#f127qbjtx6kkt7)" height="35.0938" rx="12.5" ry="12.5" style="stroke:#A80036;stroke-width:1.5;" width="240" x="288" y="1889.0508"/><text fill="#000000" font-family="sans-serif" font-size="12" lengthAdjust="spacing" textLength="220" x="298" y="1911.5078">handから、親指・人差し指の位置を取得</text><rect fill="#FEFECE" filter="url(#f127qbjtx6kkt7)" height="35.0938" rx="12.5" ry="12.5" style="stroke:#A80036;stroke-width:1.5;" width="226" x="295" y="1944.1445"/><text fill="#000000" font-family="sans-serif" font-size="12" lengthAdjust="spacing" textLength="206" x="305" y="1966.6016">親指と人差し指の中心をpointerに格納</text><rect fill="#FEFECE" filter="url(#f127qbjtx6kkt7)" height="35.0938" rx="12.5" ry="12.5" style="stroke:#A80036;stroke-width:1.5;" width="176" x="320" y="1999.2383"/><text fill="#000000" font-family="sans-serif" font-size="12" lengthAdjust="spacing" textLength="156" x="330" y="2021.6953">親指と人差し指の距離を返す</text><ellipse cx="408" cy="2064.332" fill="#FFFFFF" filter="url(#f127qbjtx6kkt7)" rx="10" ry="10" style="stroke:#000000;stroke-width:1.5;"/><line style="stroke:#000000;stroke-width:2.5;" x1="401.8128" x2="414.1872" y1="2058.1448" y2="2070.5192"/><line style="stroke:#000000;stroke-width:2.5;" x1="414.1872" x2="401.8128" y1="2058.1448" y2="2070.5192"/><rect fill="#FFFFFF" filter="url(#f127qbjtx6kkt7)" height="322.9844" style="stroke:#000000;stroke-width:2.0;" width="291" x="262.5" y="2096.332"/><path d="M530.5,2096.332 L530.5,2106.9414 L520.5,2116.9414 L262.5,2116.9414 " fill="none" style="stroke:#000000;stroke-width:2.0;"/><text fill="#000000" font-family="sans-serif" font-size="14" font-weight="bold" lengthAdjust="spacing" textLength="58" x="265.5" y="2111.8652">function</text><text fill="#000000" font-family="sans-serif" font-size="14" lengthAdjust="spacing" textLength="196" x="327.5" y="2111.8652">updateNearestPoint(int* I,int* J)</text><ellipse cx="408" cy="2136.9414" fill="#000000" filter="url(#f127qbjtx6kkt7)" rx="10" ry="10" style="stroke:none;stroke-width:1.0;"/><rect fill="#FEFECE" filter="url(#f127qbjtx6kkt7)" height="35.0938" rx="12.5" ry="12.5" style="stroke:#A80036;stroke-width:1.5;" width="189" x="313.5" y="2166.9414"/><text fill="#000000" font-family="sans-serif" font-size="12" lengthAdjust="spacing" textLength="169" x="323.5" y="2189.3984">"pointerに最も近いpoint"を探す</text><rect fill="#FEFECE" filter="url(#f127qbjtx6kkt7)" height="35.0938" rx="12.5" ry="12.5" style="stroke:#A80036;stroke-width:1.5;" width="258" x="279" y="2222.0352"/><text fill="#000000" font-family="sans-serif" font-size="12" lengthAdjust="spacing" textLength="238" x="289" y="2244.4922">"pointerに最も近いpoint"の添字をI、Jに格納</text><rect fill="#FEFECE" filter="url(#f127qbjtx6kkt7)" height="35.0938" rx="12.5" ry="12.5" style="stroke:#A80036;stroke-width:1.5;" width="271" x="272.5" y="2277.1289"/><text fill="#000000" font-family="sans-serif" font-size="12" lengthAdjust="spacing" textLength="251" x="282.5" y="2299.5859">nearestPointに"pointerに最も近いpoint"を格納</text><rect fill="#FEFECE" filter="url(#f127qbjtx6kkt7)" height="35.0938" rx="12.5" ry="12.5" style="stroke:#A80036;stroke-width:1.5;" width="212" x="302" y="2332.2227"/><text fill="#000000" font-family="sans-serif" font-size="12" lengthAdjust="spacing" textLength="192" x="312" y="2354.6797">nearestPointとpointerの距離を返す</text><ellipse cx="408" cy="2397.3164" fill="#FFFFFF" filter="url(#f127qbjtx6kkt7)" rx="10" ry="10" style="stroke:#000000;stroke-width:1.5;"/><line style="stroke:#000000;stroke-width:2.5;" x1="401.8128" x2="414.1872" y1="2391.1292" y2="2403.5036"/><line style="stroke:#000000;stroke-width:2.5;" x1="414.1872" x2="401.8128" y1="2391.1292" y2="2403.5036"/><line style="stroke:#A80036;stroke-width:1.5;" x1="408" x2="408" y1="61.6094" y2="81.6094"/><polygon fill="#A80036" points="404,71.6094,408,81.6094,412,71.6094,408,75.6094" style="stroke:#A80036;stroke-width:1.0;"/><line style="stroke:#A80036;stroke-width:1.5;" x1="408" x2="408" y1="116.7031" y2="136.7031"/><polygon fill="#A80036" points="404,126.7031,408,136.7031,412,126.7031,408,130.7031" style="stroke:#A80036;stroke-width:1.0;"/><line style="stroke:#A80036;stroke-width:1.5;" x1="354.5" x2="250.5" y1="307.8086" y2="307.8086"/><line style="stroke:#A80036;stroke-width:1.5;" x1="250.5" x2="250.5" y1="307.8086" y2="357.4805"/><polygon fill="#A80036" points="246.5,347.4805,250.5,357.4805,254.5,347.4805,250.5,351.4805" style="stroke:#A80036;stroke-width:1.0;"/><text fill="#000000" font-family="sans-serif" font-size="11" lengthAdjust="spacing" textLength="11" x="250.5" y="337.1455">球</text><line style="stroke:#A80036;stroke-width:1.5;" x1="461.5" x2="725.5" y1="307.8086" y2="307.8086"/><line style="stroke:#A80036;stroke-width:1.5;" x1="725.5" x2="725.5" y1="307.8086" y2="357.4805"/><polygon fill="#A80036" points="721.5,347.4805,725.5,357.4805,729.5,347.4805,725.5,351.4805" style="stroke:#A80036;stroke-width:1.0;"/><text fill="#000000" font-family="sans-serif" font-size="11" lengthAdjust="spacing" textLength="55" x="725.5" y="337.1455">陰影立方体</text><line style="stroke:#A80036;stroke-width:1.5;" x1="538" x2="538" y1="307.8086" y2="357.4805"/><polygon fill="#A80036" points="534,347.4805,538,357.4805,542,347.4805,538,351.4805" style="stroke:#A80036;stroke-width:1.0;"/><text fill="#000000" font-family="sans-serif" font-size="11" lengthAdjust="spacing" textLength="33" x="538" y="332.1455">立方体</text><line style="stroke:#A80036;stroke-width:1.5;" x1="635.5" x2="635.5" y1="307.8086" y2="357.4805"/><polygon fill="#A80036" points="631.5,347.4805,635.5,357.4805,639.5,347.4805,635.5,351.4805" style="stroke:#A80036;stroke-width:1.0;"/><text fill="#000000" font-family="sans-serif" font-size="11" lengthAdjust="spacing" textLength="33" x="635.5" y="332.1455">六角形</text><line style="stroke:#A80036;stroke-width:1.5;" x1="250.5" x2="250.5" y1="392.5742" y2="414.5742"/><line style="stroke:#A80036;stroke-width:1.5;" x1="250.5" x2="396" y1="414.5742" y2="414.5742"/><polygon fill="#A80036" points="386,410.5742,396,414.5742,386,418.5742,390,414.5742" style="stroke:#A80036;stroke-width:1.0;"/><line style="stroke:#A80036;stroke-width:1.5;" x1="725.5" x2="725.5" y1="392.5742" y2="414.5742"/><line style="stroke:#A80036;stroke-width:1.5;" x1="725.5" x2="420" y1="414.5742" y2="414.5742"/><polygon fill="#A80036" points="430,410.5742,420,414.5742,430,418.5742,426,414.5742" style="stroke:#A80036;stroke-width:1.0;"/><line style="stroke:#A80036;stroke-width:1.5;" x1="538" x2="538" y1="392.5742" y2="414.5742"/><polygon fill="#A80036" points="534,404.5742,538,414.5742,542,404.5742,538,408.5742" style="stroke:#A80036;stroke-width:1.0;"/><line style="stroke:#A80036;stroke-width:1.5;" x1="635.5" x2="635.5" y1="392.5742" y2="414.5742"/><polygon fill="#A80036" points="631.5,404.5742,635.5,414.5742,639.5,404.5742,635.5,408.5742" style="stroke:#A80036;stroke-width:1.0;"/><line style="stroke:#A80036;stroke-width:1.5;" x1="408" x2="408" y1="275.8086" y2="295.8086"/><polygon fill="#A80036" points="404,285.8086,408,295.8086,412,285.8086,408,289.8086" style="stroke:#A80036;stroke-width:1.0;"/><line style="stroke:#A80036;stroke-width:1.5;" x1="408" x2="408" y1="215.7969" y2="240.7148"/><polygon fill="#A80036" points="404,230.7148,408,240.7148,412,230.7148,408,234.7148" style="stroke:#A80036;stroke-width:1.0;"/><line style="stroke:#A80036;stroke-width:1.5;" x1="457" x2="790.5" y1="203.7969" y2="203.7969"/><polygon fill="#A80036" points="786.5,366.1445,790.5,376.1445,794.5,366.1445,790.5,370.1445" style="stroke:#A80036;stroke-width:1.5;"/><line style="stroke:#A80036;stroke-width:1.5;" x1="790.5" x2="790.5" y1="203.7969" y2="458.5742"/><line style="stroke:#A80036;stroke-width:1.5;" x1="790.5" x2="420" y1="458.5742" y2="458.5742"/><polygon fill="#A80036" points="430,454.5742,420,458.5742,430,462.5742,426,458.5742" style="stroke:#A80036;stroke-width:1.0;"/><line style="stroke:#A80036;stroke-width:1.5;" x1="408" x2="408" y1="426.5742" y2="446.5742"/><polygon fill="#A80036" points="404,436.5742,408,446.5742,412,436.5742,408,440.5742" style="stroke:#A80036;stroke-width:1.0;"/><line style="stroke:#A80036;stroke-width:1.5;" x1="408" x2="408" y1="171.7969" y2="191.7969"/><polygon fill="#A80036" points="404,181.7969,408,191.7969,412,181.7969,408,185.7969" style="stroke:#A80036;stroke-width:1.0;"/><line style="stroke:#A80036;stroke-width:1.5;" x1="408" x2="408" y1="470.5742" y2="490.5742"/><polygon fill="#A80036" points="404,480.5742,408,490.5742,412,480.5742,408,484.5742" style="stroke:#A80036;stroke-width:1.0;"/><line style="stroke:#A80036;stroke-width:1.5;" x1="408" x2="408" y1="583.1836" y2="603.1836"/><polygon fill="#A80036" points="404,593.1836,408,603.1836,412,593.1836,408,597.1836" style="stroke:#A80036;stroke-width:1.0;"/><line style="stroke:#A80036;stroke-width:1.5;" x1="408" x2="408" y1="856.4766" y2="876.4766"/><polygon fill="#A80036" points="404,866.4766,408,876.4766,412,866.4766,408,870.4766" style="stroke:#A80036;stroke-width:1.0;"/><line style="stroke:#A80036;stroke-width:1.5;" x1="408" x2="408" y1="911.5703" y2="931.5703"/><polygon fill="#A80036" points="404,921.5703,408,931.5703,412,921.5703,408,925.5703" style="stroke:#A80036;stroke-width:1.0;"/><line style="stroke:#A80036;stroke-width:1.5;" x1="408" x2="408" y1="966.6641" y2="994.1641"/><polygon fill="#A80036" points="404,984.1641,408,994.1641,412,984.1641,408,988.1641" style="stroke:#A80036;stroke-width:1.0;"/><line style="stroke:#A80036;stroke-width:1.5;" x1="408" x2="408" y1="1029.2578" y2="1049.2578"/><polygon fill="#A80036" points="404,1039.2578,408,1049.2578,412,1039.2578,408,1043.2578" style="stroke:#A80036;stroke-width:1.0;"/><line style="stroke:#A80036;stroke-width:1.5;" x1="408" x2="408" y1="1084.3516" y2="1104.3516"/><polygon fill="#A80036" points="404,1094.3516,408,1104.3516,412,1094.3516,408,1098.3516" style="stroke:#A80036;stroke-width:1.0;"/><line style="stroke:#A80036;stroke-width:1.5;" x1="408" x2="408" y1="801.3828" y2="821.3828"/><polygon fill="#A80036" points="404,811.3828,408,821.3828,412,811.3828,408,815.3828" style="stroke:#A80036;stroke-width:1.0;"/><line style="stroke:#A80036;stroke-width:1.5;" x1="491.5" x2="559.5" y1="1171.4453" y2="1171.4453"/><polygon fill="#A80036" points="555.5,986.6641,559.5,976.6641,563.5,986.6641,559.5,982.6641" style="stroke:#A80036;stroke-width:1.5;"/><line style="stroke:#A80036;stroke-width:1.5;" x1="559.5" x2="559.5" y1="789.3828" y2="1171.4453"/><line style="stroke:#A80036;stroke-width:1.5;" x1="559.5" x2="420" y1="789.3828" y2="789.3828"/><polygon fill="#A80036" points="430,785.3828,420,789.3828,430,793.3828,426,789.3828" style="stroke:#A80036;stroke-width:1.0;"/><line style="stroke:#A80036;stroke-width:1.5;" x1="408" x2="408" y1="1139.4453" y2="1159.4453"/><polygon fill="#A80036" points="404,1149.4453,408,1159.4453,412,1149.4453,408,1153.4453" style="stroke:#A80036;stroke-width:1.0;"/><line style="stroke:#A80036;stroke-width:1.5;" x1="408" x2="408" y1="757.3828" y2="777.3828"/><polygon fill="#A80036" points="404,767.3828,408,777.3828,412,767.3828,408,771.3828" style="stroke:#A80036;stroke-width:1.0;"/><line style="stroke:#A80036;stroke-width:1.5;" x1="408" x2="408" y1="682.2773" y2="707.1953"/><polygon fill="#A80036" points="404,697.1953,408,707.1953,412,697.1953,408,701.1953" style="stroke:#A80036;stroke-width:1.0;"/><line style="stroke:#A80036;stroke-width:1.5;" x1="457" x2="581.5" y1="670.2773" y2="670.2773"/><polygon fill="#A80036" points="577.5,931.5703,581.5,941.5703,585.5,931.5703,581.5,935.5703" style="stroke:#A80036;stroke-width:1.5;"/><line style="stroke:#A80036;stroke-width:1.5;" x1="581.5" x2="581.5" y1="670.2773" y2="1215.4453"/><line style="stroke:#A80036;stroke-width:1.5;" x1="581.5" x2="420" y1="1215.4453" y2="1215.4453"/><polygon fill="#A80036" points="430,1211.4453,420,1215.4453,430,1219.4453,426,1215.4453" style="stroke:#A80036;stroke-width:1.0;"/><line style="stroke:#A80036;stroke-width:1.5;" x1="408" x2="408" y1="1183.4453" y2="1203.4453"/><polygon fill="#A80036" points="404,1193.4453,408,1203.4453,412,1193.4453,408,1197.4453" style="stroke:#A80036;stroke-width:1.0;"/><line style="stroke:#A80036;stroke-width:1.5;" x1="408" x2="408" y1="638.2773" y2="658.2773"/><polygon fill="#A80036" points="404,648.2773,408,658.2773,412,648.2773,408,652.2773" style="stroke:#A80036;stroke-width:1.0;"/><line style="stroke:#A80036;stroke-width:1.5;" x1="408" x2="408" y1="1227.4453" y2="1247.4453"/><polygon fill="#A80036" points="404,1237.4453,408,1247.4453,412,1237.4453,408,1241.4453" style="stroke:#A80036;stroke-width:1.0;"/><line style="stroke:#A80036;stroke-width:1.5;" x1="408" x2="408" y1="1340.0547" y2="1360.0547"/><polygon fill="#A80036" points="404,1350.0547,408,1360.0547,412,1350.0547,408,1354.0547" style="stroke:#A80036;stroke-width:1.0;"/><line style="stroke:#A80036;stroke-width:1.5;" x1="408" x2="408" y1="1499.1602" y2="1519.1602"/><polygon fill="#A80036" points="404,1509.1602,408,1519.1602,412,1509.1602,408,1513.1602" style="stroke:#A80036;stroke-width:1.0;"/><line style="stroke:#A80036;stroke-width:1.5;" x1="408" x2="408" y1="1613.3477" y2="1633.3477"/><polygon fill="#A80036" points="404,1623.3477,408,1633.3477,412,1623.3477,408,1627.3477" style="stroke:#A80036;stroke-width:1.0;"/><line style="stroke:#A80036;stroke-width:1.5;" x1="491.5" x2="503.5" y1="1700.4414" y2="1700.4414"/><polygon fill="#A80036" points="499.5,1660.8945,503.5,1650.8945,507.5,1660.8945,503.5,1656.8945" style="stroke:#A80036;stroke-width:1.5;"/><line style="stroke:#A80036;stroke-width:1.5;" x1="503.5" x2="503.5" y1="1601.3477" y2="1700.4414"/><line style="stroke:#A80036;stroke-width:1.5;" x1="503.5" x2="420" y1="1601.3477" y2="1601.3477"/><polygon fill="#A80036" points="430,1597.3477,420,1601.3477,430,1605.3477,426,1601.3477" style="stroke:#A80036;stroke-width:1.0;"/><line style="stroke:#A80036;stroke-width:1.5;" x1="408" x2="408" y1="1668.4414" y2="1688.4414"/><polygon fill="#A80036" points="404,1678.4414,408,1688.4414,412,1678.4414,408,1682.4414" style="stroke:#A80036;stroke-width:1.0;"/><line style="stroke:#A80036;stroke-width:1.5;" x1="408" x2="408" y1="1569.3477" y2="1589.3477"/><polygon fill="#A80036" points="404,1579.3477,408,1589.3477,412,1579.3477,408,1583.3477" style="stroke:#A80036;stroke-width:1.0;"/><line style="stroke:#A80036;stroke-width:1.5;" x1="408" x2="408" y1="1439.1484" y2="1464.0664"/><polygon fill="#A80036" points="404,1454.0664,408,1464.0664,412,1454.0664,408,1458.0664" style="stroke:#A80036;stroke-width:1.0;"/><line style="stroke:#A80036;stroke-width:1.5;" x1="491.5" x2="530" y1="1427.1484" y2="1427.1484"/><polygon fill="#A80036" points="526,1591.2539,530,1601.2539,534,1591.2539,530,1595.2539" style="stroke:#A80036;stroke-width:1.5;"/><line style="stroke:#A80036;stroke-width:1.5;" x1="530" x2="530" y1="1427.1484" y2="1744.4414"/><line style="stroke:#A80036;stroke-width:1.5;" x1="530" x2="420" y1="1744.4414" y2="1744.4414"/><polygon fill="#A80036" points="430,1740.4414,420,1744.4414,430,1748.4414,426,1744.4414" style="stroke:#A80036;stroke-width:1.0;"/><line style="stroke:#A80036;stroke-width:1.5;" x1="408" x2="408" y1="1712.4414" y2="1732.4414"/><polygon fill="#A80036" points="404,1722.4414,408,1732.4414,412,1722.4414,408,1726.4414" style="stroke:#A80036;stroke-width:1.0;"/><line style="stroke:#A80036;stroke-width:1.5;" x1="408" x2="408" y1="1395.1484" y2="1415.1484"/><polygon fill="#A80036" points="404,1405.1484,408,1415.1484,412,1405.1484,408,1409.1484" style="stroke:#A80036;stroke-width:1.0;"/><line style="stroke:#A80036;stroke-width:1.5;" x1="408" x2="408" y1="1756.4414" y2="1776.4414"/><polygon fill="#A80036" points="404,1766.4414,408,1776.4414,412,1766.4414,408,1770.4414" style="stroke:#A80036;stroke-width:1.0;"/><line style="stroke:#A80036;stroke-width:1.5;" x1="408" x2="408" y1="1869.0508" y2="1889.0508"/><polygon fill="#A80036" points="404,1879.0508,408,1889.0508,412,1879.0508,408,1883.0508" style="stroke:#A80036;stroke-width:1.0;"/><line style="stroke:#A80036;stroke-width:1.5;" x1="408" x2="408" y1="1924.1445" y2="1944.1445"/><polygon fill="#A80036" points="404,1934.1445,408,1944.1445,412,1934.1445,408,1938.1445" style="stroke:#A80036;stroke-width:1.0;"/><line style="stroke:#A80036;stroke-width:1.5;" x1="408" x2="408" y1="1979.2383" y2="1999.2383"/><polygon fill="#A80036" points="404,1989.2383,408,1999.2383,412,1989.2383,408,1993.2383" style="stroke:#A80036;stroke-width:1.0;"/><line style="stroke:#A80036;stroke-width:1.5;" x1="408" x2="408" y1="2034.332" y2="2054.332"/><polygon fill="#A80036" points="404,2044.332,408,2054.332,412,2044.332,408,2048.332" style="stroke:#A80036;stroke-width:1.0;"/><line style="stroke:#A80036;stroke-width:1.5;" x1="408" x2="408" y1="2146.9414" y2="2166.9414"/><polygon fill="#A80036" points="404,2156.9414,408,2166.9414,412,2156.9414,408,2160.9414" style="stroke:#A80036;stroke-width:1.0;"/><line style="stroke:#A80036;stroke-width:1.5;" x1="408" x2="408" y1="2202.0352" y2="2222.0352"/><polygon fill="#A80036" points="404,2212.0352,408,2222.0352,412,2212.0352,408,2216.0352" style="stroke:#A80036;stroke-width:1.0;"/><line style="stroke:#A80036;stroke-width:1.5;" x1="408" x2="408" y1="2257.1289" y2="2277.1289"/><polygon fill="#A80036" points="404,2267.1289,408,2277.1289,412,2267.1289,408,2271.1289" style="stroke:#A80036;stroke-width:1.0;"/><line style="stroke:#A80036;stroke-width:1.5;" x1="408" x2="408" y1="2312.2227" y2="2332.2227"/><polygon fill="#A80036" points="404,2322.2227,408,2332.2227,412,2322.2227,408,2326.2227" style="stroke:#A80036;stroke-width:1.0;"/><line style="stroke:#A80036;stroke-width:1.5;" x1="408" x2="408" y1="2367.3164" y2="2387.3164"/><polygon fill="#A80036" points="404,2377.3164,408,2387.3164,412,2377.3164,408,2381.3164" style="stroke:#A80036;stroke-width:1.0;"/><!--MD5=[24103d5bd109de637c5fc4f1aa7c8a13]
@startuml   activityPolygonApp_normalModeFanctions
partition "**fanction** henkei(Hand hand)" {
    start
        :getPick()を呼び出し、返り値をpickに格納;
        :updateNearestPoint()を呼び出す;
        if(pickが小さい？) then (yes)
                :"pointerに最も近いpoint"の座標を更新（pointerの方へ移動）;
                switch(ポリゴンの形は?)
                case(球)
                    :"pointerに最も近いpoint"周辺の、点の座標を更新（pointerの方へ少しだけ移動）;
                case(立方体)
                    :何もしない;
                case(六角形)
                    :何もしない;
                case(陰影立方体)
                    :何もしない;
                endswitch
            endif
    end 
}

partition "**function** kaiten(Hand hand)" {
    start
        :getPick()を呼び出し、返り値をpickに格納;
        if(pickが小さい？) then (yes)
            :ループ開始
            「全ての頂点を１個ずつ」;
            repeat
                :pointerの移動量から、x軸回りの回転量を計算;
                :座標の更新(x軸回りに回転移動);
                :pointerでの移動量から、y軸回りの回転量を計算;
                :座標の更新(y軸回りに回転移動);
                :pointerの移動量から、z軸回りの回転量を計算;
                :座標の更新(z軸回りに回転移動);
            repeat while(全ての頂点の処理を終えた？)
            
        endif
    end
}

partition "**function** kakudai(HandList handList)"{
    start
        :両手の各指を位置を取得;
        if(両手の人差し指が近づいた？) then (yes)
            :両手の人差し指の距離から倍率を計算;
            :ループ開始
                「全ての頂点を１個ずつ」;
            repeat
                :座標の更新(倍率を掛ける);
            repeat while(全ての頂点の処理を終えた？)
                
        endif
    end
}

partition "**function** getPick(Hand hand)"{
    start
        :handから、親指・人差し指の位置を取得;
        :親指と人差し指の中心をpointerに格納;
        :親指と人差し指の距離を返す;
    end
}

partition "**function** updateNearestPoint(int* I,int* J)"{
    start
        :"pointerに最も近いpoint"を探す;
        :"pointerに最も近いpoint"の添字をI、Jに格納;
        :nearestPointに"pointerに最も近いpoint"を格納;
        :nearestPointとpointerの距離を返す;
    end
}
@enduml

PlantUML version 1.2022.0(Wed Jan 12 01:16:42 JST 2022)
(GPL source distribution)
Java Runtime: Java(TM) SE Runtime Environment
JVM: Java HotSpot(TM) 64-Bit Server VM
Default Encoding: MS932
Language: en
Country: US
--></g></svg>