<?xml version="1.0" encoding="UTF-8" standalone="no"?><svg xmlns="http://www.w3.org/2000/svg" xmlns:xlink="http://www.w3.org/1999/xlink" contentScriptType="application/ecmascript" contentStyleType="text/css" height="1367px" preserveAspectRatio="none" style="width:697px;height:1367px;background:#FFFFFF;" version="1.1" viewBox="0 0 697 1367" width="697px" zoomAndPan="magnify"><defs><filter height="300%" id="fsjddjxpc3x5f" width="300%" x="-1" y="-1"><feGaussianBlur result="blurOut" stdDeviation="2.0"/><feColorMatrix in="blurOut" result="blurOut2" type="matrix" values="0 0 0 0 0 0 0 0 0 0 0 0 0 0 0 0 0 0 .4 0"/><feOffset dx="4.0" dy="4.0" in="blurOut2" result="blurOut3"/><feBlend in="SourceGraphic" in2="blurOut3" mode="normal"/></filter></defs><g><rect fill="#FFFFFF" filter="url(#fsjddjxpc3x5f)" height="1115.9414" style="stroke:#000000;stroke-width:2.0;" width="669" x="11" y="11"/><path d="M248,11 L248,21.6094 L238,31.6094 L11,31.6094 " fill="none" style="stroke:#000000;stroke-width:2.0;"/><text fill="#000000" font-family="sans-serif" font-size="14" font-weight="bold" lengthAdjust="spacing" textLength="58" x="14" y="26.5332">function</text><text fill="#000000" font-family="sans-serif" font-size="14" lengthAdjust="spacing" textLength="165" x="76" y="26.5332">SampleListner::onFrame()</text><ellipse cx="324.25" cy="51.6094" fill="#000000" filter="url(#fsjddjxpc3x5f)" rx="10" ry="10" style="stroke:none;stroke-width:1.0;"/><rect fill="#FEFECE" filter="url(#fsjddjxpc3x5f)" height="35.0938" rx="12.5" ry="12.5" style="stroke:#A80036;stroke-width:1.5;" width="188" x="230.25" y="81.6094"/><text fill="#000000" font-family="sans-serif" font-size="12" lengthAdjust="spacing" textLength="168" x="240.25" y="104.0664">"LeapMotionからデータを取得"</text><rect fill="#FEFECE" filter="url(#fsjddjxpc3x5f)" height="50.1875" rx="12.5" ry="12.5" style="stroke:#A80036;stroke-width:1.5;" width="159" x="244.75" y="136.7031"/><text fill="#000000" font-family="sans-serif" font-size="12" lengthAdjust="spacing" textLength="60" x="254.75" y="159.1602">ループ開始</text><text fill="#000000" font-family="sans-serif" font-size="12" lengthAdjust="spacing" textLength="139" x="254.75" y="174.2539">「認識した手を1個ずづ」</text><rect fill="#FEFECE" filter="url(#fsjddjxpc3x5f)" height="35.0938" rx="12.5" ry="12.5" style="stroke:#A80036;stroke-width:1.5;" width="161" x="243.75" y="299.8086"/><text fill="#000000" font-family="sans-serif" font-size="12" lengthAdjust="spacing" textLength="141" x="253.75" y="322.2656">updatePrePoint()を呼ぶ。</text><polygon fill="#FEFECE" filter="url(#fsjddjxpc3x5f)" points="296.75,354.9023,351.75,354.9023,363.75,366.9023,351.75,378.9023,296.75,378.9023,284.75,366.9023,296.75,354.9023" style="stroke:#A80036;stroke-width:1.5;"/><text fill="#000000" font-family="sans-serif" font-size="11" lengthAdjust="spacing" textLength="55" x="296.75" y="371.4033">モードは？</text><text fill="#000000" font-family="sans-serif" font-size="11" lengthAdjust="spacing" textLength="55" x="229.75" y="364.4854">簡単モード</text><text fill="#000000" font-family="sans-serif" font-size="11" lengthAdjust="spacing" textLength="55" x="363.75" y="364.4854">普通モード</text><rect fill="#FEFECE" filter="url(#fsjddjxpc3x5f)" height="50.1875" rx="12.5" ry="12.5" style="stroke:#A80036;stroke-width:1.5;" width="288" x="23" y="388.9023"/><text fill="#000000" font-family="sans-serif" font-size="12" lengthAdjust="spacing" textLength="140" x="33" y="411.3594">easyHenkei(hand) を呼ぶ</text><text fill="#000000" font-family="sans-serif" font-size="12" lengthAdjust="spacing" textLength="268" x="33" y="426.4531">（参照:activityPolygonApp_easyModeFanctions）</text><rect fill="#FEFECE" filter="url(#fsjddjxpc3x5f)" height="50.1875" rx="12.5" ry="12.5" style="stroke:#A80036;stroke-width:1.5;" width="301" x="331" y="388.9023"/><text fill="#000000" font-family="sans-serif" font-size="12" lengthAdjust="spacing" textLength="112" x="341" y="411.3594">henkei(hand) を呼ぶ</text><text fill="#000000" font-family="sans-serif" font-size="12" lengthAdjust="spacing" textLength="281" x="341" y="426.4531">（参照:activityPolygonApp_normalModeFanctions）</text><polygon fill="#FEFECE" filter="url(#fsjddjxpc3x5f)" points="324.25,445.0898,336.25,457.0898,324.25,469.0898,312.25,457.0898,324.25,445.0898" style="stroke:#A80036;stroke-width:1.5;"/><polygon fill="#FEFECE" filter="url(#fsjddjxpc3x5f)" points="307.75,250.8906,340.75,250.8906,352.75,262.8906,340.75,274.8906,307.75,274.8906,295.75,262.8906,307.75,250.8906" style="stroke:#A80036;stroke-width:1.5;"/><text fill="#000000" font-family="sans-serif" font-size="11" lengthAdjust="spacing" textLength="18" x="328.25" y="286.3096">yes</text><text fill="#000000" font-family="sans-serif" font-size="11" lengthAdjust="spacing" textLength="33" x="307.75" y="267.3916">左手？</text><polygon fill="#FEFECE" filter="url(#fsjddjxpc3x5f)" points="324.25,489.0898,336.25,501.0898,324.25,513.0898,312.25,501.0898,324.25,489.0898" style="stroke:#A80036;stroke-width:1.5;"/><rect fill="#FEFECE" filter="url(#fsjddjxpc3x5f)" height="35.0938" rx="12.5" ry="12.5" style="stroke:#A80036;stroke-width:1.5;" width="161" x="243.75" y="589.5078"/><text fill="#000000" font-family="sans-serif" font-size="12" lengthAdjust="spacing" textLength="141" x="253.75" y="611.9648">updatePrePoint()を呼ぶ。</text><polygon fill="#FEFECE" filter="url(#fsjddjxpc3x5f)" points="296.75,644.6016,351.75,644.6016,363.75,656.6016,351.75,668.6016,296.75,668.6016,284.75,656.6016,296.75,644.6016" style="stroke:#A80036;stroke-width:1.5;"/><text fill="#000000" font-family="sans-serif" font-size="11" lengthAdjust="spacing" textLength="55" x="296.75" y="661.1025">モードは？</text><text fill="#000000" font-family="sans-serif" font-size="11" lengthAdjust="spacing" textLength="55" x="229.75" y="654.1846">簡単モード</text><text fill="#000000" font-family="sans-serif" font-size="11" lengthAdjust="spacing" textLength="55" x="363.75" y="654.1846">普通モード</text><rect fill="#FEFECE" filter="url(#fsjddjxpc3x5f)" height="50.1875" rx="12.5" ry="12.5" style="stroke:#A80036;stroke-width:1.5;" width="288" x="23" y="678.6016"/><text fill="#000000" font-family="sans-serif" font-size="12" lengthAdjust="spacing" textLength="176" x="33" y="701.0586">easKaitenKakudai(hand) を呼ぶ</text><text fill="#000000" font-family="sans-serif" font-size="12" lengthAdjust="spacing" textLength="268" x="33" y="716.1523">（参照:activityPolygonApp_easyModeFanctions）</text><rect fill="#FEFECE" filter="url(#fsjddjxpc3x5f)" height="50.1875" rx="12.5" ry="12.5" style="stroke:#A80036;stroke-width:1.5;" width="301" x="331" y="678.6016"/><text fill="#000000" font-family="sans-serif" font-size="12" lengthAdjust="spacing" textLength="108" x="341" y="701.0586">kaiten(hand) を呼ぶ</text><text fill="#000000" font-family="sans-serif" font-size="12" lengthAdjust="spacing" textLength="281" x="341" y="716.1523">（参照:activityPolygonApp_normalModeFanctions）</text><polygon fill="#FEFECE" filter="url(#fsjddjxpc3x5f)" points="324.25,734.7891,336.25,746.7891,324.25,758.7891,312.25,746.7891,324.25,734.7891" style="stroke:#A80036;stroke-width:1.5;"/><polygon fill="#FEFECE" filter="url(#fsjddjxpc3x5f)" points="307.75,540.5898,340.75,540.5898,352.75,552.5898,340.75,564.5898,307.75,564.5898,295.75,552.5898,307.75,540.5898" style="stroke:#A80036;stroke-width:1.5;"/><text fill="#000000" font-family="sans-serif" font-size="11" lengthAdjust="spacing" textLength="18" x="328.25" y="576.0088">yes</text><text fill="#000000" font-family="sans-serif" font-size="11" lengthAdjust="spacing" textLength="33" x="307.75" y="557.0908">右手？</text><polygon fill="#FEFECE" filter="url(#fsjddjxpc3x5f)" points="324.25,778.7891,336.25,790.7891,324.25,802.7891,312.25,790.7891,324.25,778.7891" style="stroke:#A80036;stroke-width:1.5;"/><polygon fill="#FEFECE" filter="url(#fsjddjxpc3x5f)" points="324.25,206.8906,336.25,218.8906,324.25,230.8906,312.25,218.8906,324.25,206.8906" style="stroke:#A80036;stroke-width:1.5;"/><polygon fill="#FEFECE" filter="url(#fsjddjxpc3x5f)" points="258.25,822.7891,390.25,822.7891,402.25,834.7891,390.25,846.7891,258.25,846.7891,246.25,834.7891,258.25,822.7891" style="stroke:#A80036;stroke-width:1.5;"/><text fill="#000000" font-family="sans-serif" font-size="11" lengthAdjust="spacing" textLength="132" x="258.25" y="839.29">全ての手の処理を終えた？</text><rect fill="#FEFECE" filter="url(#fsjddjxpc3x5f)" height="35.0938" rx="12.5" ry="12.5" style="stroke:#A80036;stroke-width:1.5;" width="161" x="243.75" y="915.707"/><text fill="#000000" font-family="sans-serif" font-size="12" lengthAdjust="spacing" textLength="141" x="253.75" y="938.1641">updatePrePoint()を呼ぶ。</text><rect fill="#FEFECE" filter="url(#fsjddjxpc3x5f)" height="50.1875" rx="12.5" ry="12.5" style="stroke:#A80036;stroke-width:1.5;" width="301" x="173.75" y="980.7539"/><text fill="#000000" font-family="sans-serif" font-size="12" lengthAdjust="spacing" textLength="138" x="183.75" y="1003.2109">kakudai(handList) を呼ぶ</text><text fill="#000000" font-family="sans-serif" font-size="12" lengthAdjust="spacing" textLength="281" x="183.75" y="1018.3047">（参照:activityPolygonApp_normalModeFanctions）</text><polygon fill="#FEFECE" filter="url(#fsjddjxpc3x5f)" points="296.75,866.7891,351.75,866.7891,363.75,878.7891,351.75,890.7891,296.75,890.7891,284.75,878.7891,296.75,866.7891" style="stroke:#A80036;stroke-width:1.5;"/><text fill="#000000" font-family="sans-serif" font-size="11" lengthAdjust="spacing" textLength="18" x="328.25" y="902.208">yes</text><text fill="#000000" font-family="sans-serif" font-size="11" lengthAdjust="spacing" textLength="55" x="296.75" y="883.29">両手ある？</text><polygon fill="#FEFECE" filter="url(#fsjddjxpc3x5f)" points="324.25,1050.9414,336.25,1062.9414,324.25,1074.9414,312.25,1062.9414,324.25,1050.9414" style="stroke:#A80036;stroke-width:1.5;"/><ellipse cx="324.25" cy="1104.9414" fill="#FFFFFF" filter="url(#fsjddjxpc3x5f)" rx="10" ry="10" style="stroke:#000000;stroke-width:1.5;"/><line style="stroke:#000000;stroke-width:2.5;" x1="318.0628" x2="330.4372" y1="1098.7542" y2="1111.1286"/><line style="stroke:#000000;stroke-width:2.5;" x1="330.4372" x2="318.0628" y1="1098.7542" y2="1111.1286"/><rect fill="#FFFFFF" filter="url(#fsjddjxpc3x5f)" height="212.7969" style="stroke:#000000;stroke-width:2.0;" width="190" x="229.25" y="1137.5176"/><path d="M409.25,1137.5176 L409.25,1148.127 L399.25,1158.127 L229.25,1158.127 " fill="none" style="stroke:#000000;stroke-width:2.0;"/><text fill="#000000" font-family="sans-serif" font-size="14" font-weight="bold" lengthAdjust="spacing" textLength="58" x="232.25" y="1153.0508">function</text><text fill="#000000" font-family="sans-serif" font-size="14" lengthAdjust="spacing" textLength="108" x="294.25" y="1153.0508">updatePrePoint()</text><ellipse cx="324.25" cy="1178.127" fill="#000000" filter="url(#fsjddjxpc3x5f)" rx="10" ry="10" style="stroke:none;stroke-width:1.0;"/><rect fill="#FEFECE" filter="url(#fsjddjxpc3x5f)" height="35.0938" rx="12.5" ry="12.5" style="stroke:#A80036;stroke-width:1.5;" width="141" x="253.75" y="1208.127"/><text fill="#000000" font-family="sans-serif" font-size="12" lengthAdjust="spacing" textLength="121" x="263.75" y="1230.584">prePointにpointを格納</text><rect fill="#FEFECE" filter="url(#fsjddjxpc3x5f)" height="35.0938" rx="12.5" ry="12.5" style="stroke:#A80036;stroke-width:1.5;" width="163" x="242.75" y="1263.2207"/><text fill="#000000" font-family="sans-serif" font-size="12" lengthAdjust="spacing" textLength="143" x="252.75" y="1285.6777">prePointerにpointerを格納</text><ellipse cx="324.25" cy="1328.3145" fill="#FFFFFF" filter="url(#fsjddjxpc3x5f)" rx="10" ry="10" style="stroke:#000000;stroke-width:1.5;"/><line style="stroke:#000000;stroke-width:2.5;" x1="318.0628" x2="330.4372" y1="1322.1273" y2="1334.5016"/><line style="stroke:#000000;stroke-width:2.5;" x1="330.4372" x2="318.0628" y1="1322.1273" y2="1334.5016"/><line style="stroke:#A80036;stroke-width:1.5;" x1="324.25" x2="324.25" y1="61.6094" y2="81.6094"/><polygon fill="#A80036" points="320.25,71.6094,324.25,81.6094,328.25,71.6094,324.25,75.6094" style="stroke:#A80036;stroke-width:1.0;"/><line style="stroke:#A80036;stroke-width:1.5;" x1="324.25" x2="324.25" y1="116.7031" y2="136.7031"/><polygon fill="#A80036" points="320.25,126.7031,324.25,136.7031,328.25,126.7031,324.25,130.7031" style="stroke:#A80036;stroke-width:1.0;"/><line style="stroke:#A80036;stroke-width:1.5;" x1="284.75" x2="167" y1="366.9023" y2="366.9023"/><line style="stroke:#A80036;stroke-width:1.5;" x1="167" x2="167" y1="366.9023" y2="388.9023"/><polygon fill="#A80036" points="163,378.9023,167,388.9023,171,378.9023,167,382.9023" style="stroke:#A80036;stroke-width:1.0;"/><line style="stroke:#A80036;stroke-width:1.5;" x1="363.75" x2="481.5" y1="366.9023" y2="366.9023"/><line style="stroke:#A80036;stroke-width:1.5;" x1="481.5" x2="481.5" y1="366.9023" y2="388.9023"/><polygon fill="#A80036" points="477.5,378.9023,481.5,388.9023,485.5,378.9023,481.5,382.9023" style="stroke:#A80036;stroke-width:1.0;"/><line style="stroke:#A80036;stroke-width:1.5;" x1="167" x2="167" y1="439.0898" y2="457.0898"/><line style="stroke:#A80036;stroke-width:1.5;" x1="167" x2="312.25" y1="457.0898" y2="457.0898"/><polygon fill="#A80036" points="302.25,453.0898,312.25,457.0898,302.25,461.0898,306.25,457.0898" style="stroke:#A80036;stroke-width:1.0;"/><line style="stroke:#A80036;stroke-width:1.5;" x1="481.5" x2="481.5" y1="439.0898" y2="457.0898"/><line style="stroke:#A80036;stroke-width:1.5;" x1="481.5" x2="336.25" y1="457.0898" y2="457.0898"/><polygon fill="#A80036" points="346.25,453.0898,336.25,457.0898,346.25,461.0898,342.25,457.0898" style="stroke:#A80036;stroke-width:1.0;"/><line style="stroke:#A80036;stroke-width:1.5;" x1="324.25" x2="324.25" y1="334.9023" y2="354.9023"/><polygon fill="#A80036" points="320.25,344.9023,324.25,354.9023,328.25,344.9023,324.25,348.9023" style="stroke:#A80036;stroke-width:1.0;"/><line style="stroke:#A80036;stroke-width:1.5;" x1="324.25" x2="324.25" y1="274.8906" y2="299.8086"/><polygon fill="#A80036" points="320.25,289.8086,324.25,299.8086,328.25,289.8086,324.25,293.8086" style="stroke:#A80036;stroke-width:1.0;"/><line style="stroke:#A80036;stroke-width:1.5;" x1="352.75" x2="646" y1="262.8906" y2="262.8906"/><polygon fill="#A80036" points="642,366.9492,646,376.9492,650,366.9492,646,370.9492" style="stroke:#A80036;stroke-width:1.5;"/><line style="stroke:#A80036;stroke-width:1.5;" x1="646" x2="646" y1="262.8906" y2="501.0898"/><line style="stroke:#A80036;stroke-width:1.5;" x1="646" x2="336.25" y1="501.0898" y2="501.0898"/><polygon fill="#A80036" points="346.25,497.0898,336.25,501.0898,346.25,505.0898,342.25,501.0898" style="stroke:#A80036;stroke-width:1.0;"/><line style="stroke:#A80036;stroke-width:1.5;" x1="324.25" x2="324.25" y1="469.0898" y2="489.0898"/><polygon fill="#A80036" points="320.25,479.0898,324.25,489.0898,328.25,479.0898,324.25,483.0898" style="stroke:#A80036;stroke-width:1.0;"/><line style="stroke:#A80036;stroke-width:1.5;" x1="284.75" x2="167" y1="656.6016" y2="656.6016"/><line style="stroke:#A80036;stroke-width:1.5;" x1="167" x2="167" y1="656.6016" y2="678.6016"/><polygon fill="#A80036" points="163,668.6016,167,678.6016,171,668.6016,167,672.6016" style="stroke:#A80036;stroke-width:1.0;"/><line style="stroke:#A80036;stroke-width:1.5;" x1="363.75" x2="481.5" y1="656.6016" y2="656.6016"/><line style="stroke:#A80036;stroke-width:1.5;" x1="481.5" x2="481.5" y1="656.6016" y2="678.6016"/><polygon fill="#A80036" points="477.5,668.6016,481.5,678.6016,485.5,668.6016,481.5,672.6016" style="stroke:#A80036;stroke-width:1.0;"/><line style="stroke:#A80036;stroke-width:1.5;" x1="167" x2="167" y1="728.7891" y2="746.7891"/><line style="stroke:#A80036;stroke-width:1.5;" x1="167" x2="312.25" y1="746.7891" y2="746.7891"/><polygon fill="#A80036" points="302.25,742.7891,312.25,746.7891,302.25,750.7891,306.25,746.7891" style="stroke:#A80036;stroke-width:1.0;"/><line style="stroke:#A80036;stroke-width:1.5;" x1="481.5" x2="481.5" y1="728.7891" y2="746.7891"/><line style="stroke:#A80036;stroke-width:1.5;" x1="481.5" x2="336.25" y1="746.7891" y2="746.7891"/><polygon fill="#A80036" points="346.25,742.7891,336.25,746.7891,346.25,750.7891,342.25,746.7891" style="stroke:#A80036;stroke-width:1.0;"/><line style="stroke:#A80036;stroke-width:1.5;" x1="324.25" x2="324.25" y1="624.6016" y2="644.6016"/><polygon fill="#A80036" points="320.25,634.6016,324.25,644.6016,328.25,634.6016,324.25,638.6016" style="stroke:#A80036;stroke-width:1.0;"/><line style="stroke:#A80036;stroke-width:1.5;" x1="324.25" x2="324.25" y1="564.5898" y2="589.5078"/><polygon fill="#A80036" points="320.25,579.5078,324.25,589.5078,328.25,579.5078,324.25,583.5078" style="stroke:#A80036;stroke-width:1.0;"/><line style="stroke:#A80036;stroke-width:1.5;" x1="352.75" x2="646" y1="552.5898" y2="552.5898"/><polygon fill="#A80036" points="642,656.6484,646,666.6484,650,656.6484,646,660.6484" style="stroke:#A80036;stroke-width:1.5;"/><line style="stroke:#A80036;stroke-width:1.5;" x1="646" x2="646" y1="552.5898" y2="790.7891"/><line style="stroke:#A80036;stroke-width:1.5;" x1="646" x2="336.25" y1="790.7891" y2="790.7891"/><polygon fill="#A80036" points="346.25,786.7891,336.25,790.7891,346.25,794.7891,342.25,790.7891" style="stroke:#A80036;stroke-width:1.0;"/><line style="stroke:#A80036;stroke-width:1.5;" x1="324.25" x2="324.25" y1="758.7891" y2="778.7891"/><polygon fill="#A80036" points="320.25,768.7891,324.25,778.7891,328.25,768.7891,324.25,772.7891" style="stroke:#A80036;stroke-width:1.0;"/><line style="stroke:#A80036;stroke-width:1.5;" x1="324.25" x2="324.25" y1="513.0898" y2="540.5898"/><polygon fill="#A80036" points="320.25,530.5898,324.25,540.5898,328.25,530.5898,324.25,534.5898" style="stroke:#A80036;stroke-width:1.0;"/><line style="stroke:#A80036;stroke-width:1.5;" x1="324.25" x2="324.25" y1="230.8906" y2="250.8906"/><polygon fill="#A80036" points="320.25,240.8906,324.25,250.8906,328.25,240.8906,324.25,244.8906" style="stroke:#A80036;stroke-width:1.0;"/><line style="stroke:#A80036;stroke-width:1.5;" x1="402.25" x2="664" y1="834.7891" y2="834.7891"/><polygon fill="#A80036" points="660,533.0898,664,523.0898,668,533.0898,664,529.0898" style="stroke:#A80036;stroke-width:1.5;"/><line style="stroke:#A80036;stroke-width:1.5;" x1="664" x2="664" y1="218.8906" y2="834.7891"/><line style="stroke:#A80036;stroke-width:1.5;" x1="664" x2="336.25" y1="218.8906" y2="218.8906"/><polygon fill="#A80036" points="346.25,214.8906,336.25,218.8906,346.25,222.8906,342.25,218.8906" style="stroke:#A80036;stroke-width:1.0;"/><line style="stroke:#A80036;stroke-width:1.5;" x1="324.25" x2="324.25" y1="802.7891" y2="822.7891"/><polygon fill="#A80036" points="320.25,812.7891,324.25,822.7891,328.25,812.7891,324.25,816.7891" style="stroke:#A80036;stroke-width:1.0;"/><line style="stroke:#A80036;stroke-width:1.5;" x1="324.25" x2="324.25" y1="186.8906" y2="206.8906"/><polygon fill="#A80036" points="320.25,196.8906,324.25,206.8906,328.25,196.8906,324.25,200.8906" style="stroke:#A80036;stroke-width:1.0;"/><line style="stroke:#A80036;stroke-width:1.5;" x1="324.25" x2="324.25" y1="950.8008" y2="980.7539"/><polygon fill="#A80036" points="320.25,970.7539,324.25,980.7539,328.25,970.7539,324.25,974.7539" style="stroke:#A80036;stroke-width:1.0;"/><line style="stroke:#A80036;stroke-width:1.5;" x1="324.25" x2="324.25" y1="890.7891" y2="915.707"/><polygon fill="#A80036" points="320.25,905.707,324.25,915.707,328.25,905.707,324.25,909.707" style="stroke:#A80036;stroke-width:1.0;"/><line style="stroke:#A80036;stroke-width:1.5;" x1="363.75" x2="484.75" y1="878.7891" y2="878.7891"/><polygon fill="#A80036" points="480.75,960.8008,484.75,970.8008,488.75,960.8008,484.75,964.8008" style="stroke:#A80036;stroke-width:1.5;"/><line style="stroke:#A80036;stroke-width:1.5;" x1="484.75" x2="484.75" y1="878.7891" y2="1062.9414"/><line style="stroke:#A80036;stroke-width:1.5;" x1="484.75" x2="336.25" y1="1062.9414" y2="1062.9414"/><polygon fill="#A80036" points="346.25,1058.9414,336.25,1062.9414,346.25,1066.9414,342.25,1062.9414" style="stroke:#A80036;stroke-width:1.0;"/><line style="stroke:#A80036;stroke-width:1.5;" x1="324.25" x2="324.25" y1="1030.9414" y2="1050.9414"/><polygon fill="#A80036" points="320.25,1040.9414,324.25,1050.9414,328.25,1040.9414,324.25,1044.9414" style="stroke:#A80036;stroke-width:1.0;"/><line style="stroke:#A80036;stroke-width:1.5;" x1="324.25" x2="324.25" y1="846.7891" y2="866.7891"/><polygon fill="#A80036" points="320.25,856.7891,324.25,866.7891,328.25,856.7891,324.25,860.7891" style="stroke:#A80036;stroke-width:1.0;"/><line style="stroke:#A80036;stroke-width:1.5;" x1="324.25" x2="324.25" y1="1074.9414" y2="1094.9414"/><polygon fill="#A80036" points="320.25,1084.9414,324.25,1094.9414,328.25,1084.9414,324.25,1088.9414" style="stroke:#A80036;stroke-width:1.0;"/><line style="stroke:#A80036;stroke-width:1.5;" x1="324.25" x2="324.25" y1="1188.127" y2="1208.127"/><polygon fill="#A80036" points="320.25,1198.127,324.25,1208.127,328.25,1198.127,324.25,1202.127" style="stroke:#A80036;stroke-width:1.0;"/><line style="stroke:#A80036;stroke-width:1.5;" x1="324.25" x2="324.25" y1="1243.2207" y2="1263.2207"/><polygon fill="#A80036" points="320.25,1253.2207,324.25,1263.2207,328.25,1253.2207,324.25,1257.2207" style="stroke:#A80036;stroke-width:1.0;"/><line style="stroke:#A80036;stroke-width:1.5;" x1="324.25" x2="324.25" y1="1298.3145" y2="1318.3145"/><polygon fill="#A80036" points="320.25,1308.3145,324.25,1318.3145,328.25,1308.3145,324.25,1312.3145" style="stroke:#A80036;stroke-width:1.0;"/><!--MD5=[dfed5606a8c8a568b899bdd46aaf22c4]
@startuml activityPolygonApp_onFrame


partition "**function** SampleListner::onFrame()"{
    start
        :"LeapMotionからデータを取得";
        :ループ開始
        「認識した手を1個ずづ」;
        repeat 
        if(左手？) then (yes)
            :updatePrePoint()を呼ぶ。;
            if(モードは？) then (簡単モード)
                :easyHenkei(hand) を呼ぶ\n（参照:activityPolygonApp_easyModeFanctions）;
            else (普通モード)
                :henkei(hand) を呼ぶ\n（参照:activityPolygonApp_normalModeFanctions）;
            endif
        endif

        if (右手？) then (yes)
            :updatePrePoint()を呼ぶ。;
            if(モードは？) then (簡単モード)
                :easKaitenKakudai(hand) を呼ぶ\n（参照:activityPolygonApp_easyModeFanctions）;
            else (普通モード)
                :kaiten(hand) を呼ぶ\n（参照:activityPolygonApp_normalModeFanctions）;
            endif
        endif
        repeat while(全ての手の処理を終えた？)


        if(両手ある？) then (yes)
        :updatePrePoint()を呼ぶ。;
        :kakudai(handList) を呼ぶ\n（参照:activityPolygonApp_normalModeFanctions）;
        endif

    end
}


partition "**function** updatePrePoint()"{
    start
        :prePointにpointを格納;
        :prePointerにpointerを格納;
    end
}


@enduml

PlantUML version 1.2022.0(Wed Jan 12 01:16:42 JST 2022)
(GPL source distribution)
Java Runtime: Java(TM) SE Runtime Environment
JVM: Java HotSpot(TM) 64-Bit Server VM
Default Encoding: MS932
Language: en
Country: US
--></g></svg>