<?xml version="1.0" encoding="UTF-8" standalone="no"?><svg xmlns="http://www.w3.org/2000/svg" xmlns:xlink="http://www.w3.org/1999/xlink" contentScriptType="application/ecmascript" contentStyleType="text/css" height="2528px" preserveAspectRatio="none" style="width:1201px;height:2528px;background:#FFFFFF;" version="1.1" viewBox="0 0 1201 2528" width="1201px" zoomAndPan="magnify"><defs><filter height="300%" id="fy4rcvx18pkr8" width="300%" x="-1" y="-1"><feGaussianBlur result="blurOut" stdDeviation="2.0"/><feColorMatrix in="blurOut" result="blurOut2" type="matrix" values="0 0 0 0 0 0 0 0 0 0 0 0 0 0 0 0 0 0 .4 0"/><feOffset dx="4.0" dy="4.0" in="blurOut2" result="blurOut3"/><feBlend in="SourceGraphic" in2="blurOut3" mode="normal"/></filter></defs><g><rect fill="#FFFFFF" filter="url(#fy4rcvx18pkr8)" height="2167.9922" style="stroke:#000000;stroke-width:2.0;" width="1173.5" x="10" y="258.3672"/><rect fill="#FFFFFF" filter="url(#fy4rcvx18pkr8)" height="135.4063" style="stroke:#000000;stroke-width:2.0;" width="587.5" x="556" y="300.0703"/><rect fill="#FFFFFF" filter="url(#fy4rcvx18pkr8)" height="1969.8828" style="stroke:#000000;stroke-width:2.0;" width="1153.5" x="20" y="449.4766"/><rect fill="#FFFFFF" filter="url(#fy4rcvx18pkr8)" height="937.6719" style="stroke:#000000;stroke-width:2.0;" width="1113.5" x="40" y="474.8281"/><rect fill="#FFFFFF" filter="url(#fy4rcvx18pkr8)" height="152.7578" style="stroke:#000000;stroke-width:2.0;" width="1093.5" x="50" y="500.1797"/><rect fill="#FFFFFF" height="182.5938" style="stroke:none;stroke-width:1.0;" width="1113.5" x="40" y="659.9375"/><rect fill="#FFFFFF" filter="url(#fy4rcvx18pkr8)" height="152.7578" style="stroke:#000000;stroke-width:2.0;" width="1093.5" x="50" y="682.7734"/><rect fill="#FFFFFF" height="182.5938" style="stroke:none;stroke-width:1.0;" width="1113.5" x="40" y="842.5313"/><rect fill="#FFFFFF" filter="url(#fy4rcvx18pkr8)" height="152.7578" style="stroke:#000000;stroke-width:2.0;" width="1093.5" x="50" y="865.3672"/><rect fill="#FFFFFF" height="139.2422" style="stroke:none;stroke-width:1.0;" width="1113.5" x="40" y="1025.125"/><rect fill="#FFFFFF" filter="url(#fy4rcvx18pkr8)" height="109.4063" style="stroke:#000000;stroke-width:2.0;" width="1093.5" x="50" y="1047.9609"/><rect fill="#FFFFFF" height="139.2422" style="stroke:none;stroke-width:1.0;" width="1113.5" x="40" y="1164.3672"/><rect fill="#FFFFFF" filter="url(#fy4rcvx18pkr8)" height="109.4063" style="stroke:#000000;stroke-width:2.0;" width="1093.5" x="50" y="1187.2031"/><rect fill="#FFFFFF" height="108.8906" style="stroke:none;stroke-width:1.0;" width="1113.5" x="40" y="1303.6094"/><rect fill="#FFFFFF" filter="url(#fy4rcvx18pkr8)" height="79.0547" style="stroke:#000000;stroke-width:2.0;" width="1093.5" x="50" y="1326.4453"/><rect fill="#FFFFFF" height="999.8594" style="stroke:none;stroke-width:1.0;" width="1153.5" x="20" y="1419.5"/><rect fill="#FFFFFF" filter="url(#fy4rcvx18pkr8)" height="970.0234" style="stroke:#000000;stroke-width:2.0;" width="1133.5" x="30" y="1442.3359"/><rect fill="#FFFFFF" filter="url(#fy4rcvx18pkr8)" height="152.7578" style="stroke:#000000;stroke-width:2.0;" width="1093.5" x="50" y="1467.6875"/><rect fill="#FFFFFF" height="182.5938" style="stroke:none;stroke-width:1.0;" width="1133.5" x="30" y="1627.4453"/><rect fill="#FFFFFF" filter="url(#fy4rcvx18pkr8)" height="152.7578" style="stroke:#000000;stroke-width:2.0;" width="1093.5" x="50" y="1650.2813"/><rect fill="#FFFFFF" height="214.9453" style="stroke:none;stroke-width:1.0;" width="1133.5" x="30" y="1810.0391"/><rect fill="#FFFFFF" filter="url(#fy4rcvx18pkr8)" height="185.1094" style="stroke:#000000;stroke-width:2.0;" width="1113.5" x="40" y="1832.875"/><rect fill="#FFFFFF" filter="url(#fy4rcvx18pkr8)" height="152.7578" style="stroke:#000000;stroke-width:2.0;" width="1093.5" x="50" y="1858.2266"/><rect fill="#FFFFFF" height="139.2422" style="stroke:none;stroke-width:1.0;" width="1133.5" x="30" y="2024.9844"/><rect fill="#FFFFFF" filter="url(#fy4rcvx18pkr8)" height="109.4063" style="stroke:#000000;stroke-width:2.0;" width="1093.5" x="50" y="2047.8203"/><rect fill="#FFFFFF" height="139.2422" style="stroke:none;stroke-width:1.0;" width="1133.5" x="30" y="2164.2266"/><rect fill="#FFFFFF" filter="url(#fy4rcvx18pkr8)" height="109.4063" style="stroke:#000000;stroke-width:2.0;" width="1093.5" x="50" y="2187.0625"/><rect fill="#FFFFFF" height="108.8906" style="stroke:none;stroke-width:1.0;" width="1133.5" x="30" y="2303.4688"/><rect fill="#FFFFFF" filter="url(#fy4rcvx18pkr8)" height="79.0547" style="stroke:#000000;stroke-width:2.0;" width="1093.5" x="50" y="2326.3047"/><line style="stroke:#A80036;stroke-width:1.0;stroke-dasharray:5.0,5.0;" x1="84" x2="84" y1="89.6094" y2="2443.3594"/><line style="stroke:#A80036;stroke-width:1.0;stroke-dasharray:5.0,5.0;" x1="303" x2="303" y1="89.6094" y2="2443.3594"/><line style="stroke:#A80036;stroke-width:1.0;stroke-dasharray:5.0,5.0;" x1="468" x2="468" y1="89.6094" y2="2443.3594"/><line style="stroke:#A80036;stroke-width:1.0;stroke-dasharray:5.0,5.0;" x1="599" x2="599" y1="89.6094" y2="2443.3594"/><line style="stroke:#A80036;stroke-width:1.0;stroke-dasharray:5.0,5.0;" x1="835" x2="835" y1="89.6094" y2="2443.3594"/><line style="stroke:#A80036;stroke-width:1.0;stroke-dasharray:5.0,5.0;" x1="1066.5" x2="1066.5" y1="89.6094" y2="2443.3594"/><line style="stroke:#A80036;stroke-width:1.0;stroke-dasharray:5.0,5.0;" x1="1167.5" x2="1167.5" y1="89.6094" y2="2443.3594"/><text fill="#000000" font-family="sans-serif" font-size="14" lengthAdjust="spacing" textLength="42" x="60" y="86.5332">戸谷君</text><ellipse cx="84" cy="15" fill="#FEFECE" filter="url(#fy4rcvx18pkr8)" rx="8" ry="8" style="stroke:#A80036;stroke-width:2.0;"/><path d="M84,23 L84,50 M71,31 L97,31 M84,50 L71,65 M84,50 L97,65 " fill="none" filter="url(#fy4rcvx18pkr8)" style="stroke:#A80036;stroke-width:2.0;"/><text fill="#000000" font-family="sans-serif" font-size="14" lengthAdjust="spacing" textLength="42" x="60" y="2456.8926">戸谷君</text><ellipse cx="84" cy="2469.9688" fill="#FEFECE" filter="url(#fy4rcvx18pkr8)" rx="8" ry="8" style="stroke:#A80036;stroke-width:2.0;"/><path d="M84,2477.9688 L84,2504.9688 M71,2485.9688 L97,2485.9688 M84,2504.9688 L71,2519.9688 M84,2504.9688 L97,2519.9688 " fill="none" filter="url(#fy4rcvx18pkr8)" style="stroke:#A80036;stroke-width:2.0;"/><rect fill="#FEFECE" filter="url(#fy4rcvx18pkr8)" height="31.6094" style="stroke:#A80036;stroke-width:1.5;" width="88" x="257" y="53"/><text fill="#000000" font-family="sans-serif" font-size="14" lengthAdjust="spacing" textLength="74" x="264" y="74.5332">LeapMotion</text><rect fill="#FEFECE" filter="url(#fy4rcvx18pkr8)" height="31.6094" style="stroke:#A80036;stroke-width:1.5;" width="88" x="257" y="2442.3594"/><text fill="#000000" font-family="sans-serif" font-size="14" lengthAdjust="spacing" textLength="74" x="264" y="2463.8926">LeapMotion</text><rect fill="#FEFECE" filter="url(#fy4rcvx18pkr8)" height="31.6094" style="stroke:#A80036;stroke-width:1.5;" width="104" x="414" y="53"/><text fill="#000000" font-family="sans-serif" font-size="14" lengthAdjust="spacing" textLength="90" x="421" y="74.5332">SampleListner</text><rect fill="#FEFECE" filter="url(#fy4rcvx18pkr8)" height="31.6094" style="stroke:#A80036;stroke-width:1.5;" width="104" x="414" y="2442.3594"/><text fill="#000000" font-family="sans-serif" font-size="14" lengthAdjust="spacing" textLength="90" x="421" y="2463.8926">SampleListner</text><rect fill="#FEFECE" filter="url(#fy4rcvx18pkr8)" height="31.6094" style="stroke:#A80036;stroke-width:1.5;" width="62" x="566" y="53"/><text fill="#000000" font-family="sans-serif" font-size="14" lengthAdjust="spacing" textLength="48" x="573" y="74.5332">freeglut</text><rect fill="#FEFECE" filter="url(#fy4rcvx18pkr8)" height="31.6094" style="stroke:#A80036;stroke-width:1.5;" width="62" x="566" y="2442.3594"/><text fill="#000000" font-family="sans-serif" font-size="14" lengthAdjust="spacing" textLength="48" x="573" y="2463.8926">freeglut</text><rect fill="#FEFECE" filter="url(#fy4rcvx18pkr8)" height="31.6094" style="stroke:#A80036;stroke-width:1.5;" width="114" x="776" y="53"/><text fill="#000000" font-family="sans-serif" font-size="14" lengthAdjust="spacing" textLength="100" x="783" y="74.5332">initializePolygon</text><rect fill="#FEFECE" filter="url(#fy4rcvx18pkr8)" height="31.6094" style="stroke:#A80036;stroke-width:1.5;" width="114" x="776" y="2442.3594"/><text fill="#000000" font-family="sans-serif" font-size="14" lengthAdjust="spacing" textLength="100" x="783" y="2463.8926">initializePolygon</text><rect fill="#FEFECE" filter="url(#fy4rcvx18pkr8)" height="31.6094" style="stroke:#A80036;stroke-width:1.5;" width="129" x="1000.5" y="53"/><text fill="#000000" font-family="sans-serif" font-size="14" lengthAdjust="spacing" textLength="115" x="1007.5" y="74.5332">CommonVariables</text><rect fill="#FEFECE" filter="url(#fy4rcvx18pkr8)" height="31.6094" style="stroke:#A80036;stroke-width:1.5;" width="129" x="1000.5" y="2442.3594"/><text fill="#000000" font-family="sans-serif" font-size="14" lengthAdjust="spacing" textLength="115" x="1007.5" y="2463.8926">CommonVariables</text><rect fill="#FEFECE" filter="url(#fy4rcvx18pkr8)" height="31.6094" style="stroke:#A80036;stroke-width:1.5;" width="44" x="1143.5" y="53"/><text fill="#000000" font-family="sans-serif" font-size="14" lengthAdjust="spacing" textLength="30" x="1150.5" y="74.5332">main</text><rect fill="#FEFECE" filter="url(#fy4rcvx18pkr8)" height="31.6094" style="stroke:#A80036;stroke-width:1.5;" width="44" x="1143.5" y="2442.3594"/><text fill="#000000" font-family="sans-serif" font-size="14" lengthAdjust="spacing" textLength="30" x="1150.5" y="2463.8926">main</text><polygon fill="#A80036" points="1155.5,117.9609,1165.5,121.9609,1155.5,125.9609,1159.5,121.9609" style="stroke:#A80036;stroke-width:1.0;"/><line style="stroke:#A80036;stroke-width:1.0;" x1="84" x2="1161.5" y1="121.9609" y2="121.9609"/><text fill="#000000" font-family="sans-serif" font-size="13" lengthAdjust="spacing" textLength="52" x="91" y="117.1045">呼び出す</text><polygon fill="#A80036" points="314,148.3125,304,152.3125,314,156.3125,310,152.3125" style="stroke:#A80036;stroke-width:1.0;"/><line style="stroke:#A80036;stroke-width:1.0;" x1="308" x2="1166.5" y1="152.3125" y2="152.3125"/><text fill="#000000" font-family="sans-serif" font-size="13" lengthAdjust="spacing" textLength="278" x="320" y="147.4561">addListenerでleapmotionにSampleListnerを登録</text><polygon fill="#A80036" points="823,178.6641,833,182.6641,823,186.6641,827,182.6641" style="stroke:#A80036;stroke-width:1.0;"/><line style="stroke:#A80036;stroke-width:1.0;" x1="303" x2="829" y1="182.6641" y2="182.6641"/><text fill="#000000" font-family="sans-serif" font-size="13" lengthAdjust="spacing" textLength="99" x="310" y="177.8076">InitBall()をコール</text><polygon fill="#A80036" points="1055,209.0156,1065,213.0156,1055,217.0156,1059,213.0156" style="stroke:#A80036;stroke-width:1.0;"/><line style="stroke:#A80036;stroke-width:1.0;" x1="835" x2="1061" y1="213.0156" y2="213.0156"/><text fill="#000000" font-family="sans-serif" font-size="13" lengthAdjust="spacing" textLength="104" x="842" y="208.1592">頂点の座標を更新</text><polygon fill="#A80036" points="610,239.3672,600,243.3672,610,247.3672,606,243.3672" style="stroke:#A80036;stroke-width:1.0;"/><line style="stroke:#A80036;stroke-width:1.0;" x1="604" x2="1166.5" y1="243.3672" y2="243.3672"/><text fill="#000000" font-family="sans-serif" font-size="13" lengthAdjust="spacing" textLength="98" x="616" y="238.5107">glutInit()で初期化</text><path d="M10,258.3672 L414,258.3672 L414,282.3672 L404,292.3672 L10,292.3672 L10,258.3672 " fill="#EEEEEE" style="stroke:#000000;stroke-width:1.0;"/><rect fill="none" height="2167.9922" style="stroke:#000000;stroke-width:2.0;" width="1173.5" x="10" y="258.3672"/><text fill="#000000" font-family="sans-serif" font-size="13" font-weight="bold" lengthAdjust="spacing" textLength="28" x="25" y="272.8623">loop</text><text fill="#000000" font-family="sans-serif" font-size="13" font-weight="bold" lengthAdjust="spacing" textLength="359" x="25" y="289.2139">(SampleListnerとfreeglutによりアプリが終わるまで続く)</text><path d="M556,300.0703 L699,300.0703 L699,308.0703 L689,318.0703 L556,318.0703 L556,300.0703 " fill="#EEEEEE" style="stroke:#000000;stroke-width:1.0;"/><rect fill="none" height="135.4063" style="stroke:#000000;stroke-width:2.0;" width="587.5" x="556" y="300.0703"/><text fill="#000000" font-family="sans-serif" font-size="13" font-weight="bold" lengthAdjust="spacing" textLength="98" x="571" y="314.5654">ポリゴンの表示</text><polygon fill="#A80036" points="610,336.7734,600,340.7734,610,344.7734,606,340.7734" style="stroke:#A80036;stroke-width:1.0;"/><line style="stroke:#A80036;stroke-width:1.0;" x1="604" x2="1066" y1="340.7734" y2="340.7734"/><text fill="#000000" font-family="sans-serif" font-size="13" lengthAdjust="spacing" textLength="104" x="616" y="335.917">頂点の座標を取得</text><line style="stroke:#A80036;stroke-width:1.0;" x1="599" x2="641" y1="371.125" y2="371.125"/><line style="stroke:#A80036;stroke-width:1.0;" x1="641" x2="641" y1="371.125" y2="384.125"/><line style="stroke:#A80036;stroke-width:1.0;" x1="600" x2="641" y1="384.125" y2="384.125"/><polygon fill="#A80036" points="610,380.125,600,384.125,610,388.125,606,384.125" style="stroke:#A80036;stroke-width:1.0;"/><text fill="#000000" font-family="sans-serif" font-size="13" lengthAdjust="spacing" textLength="65" x="606" y="366.2686">描画の設定</text><line style="stroke:#A80036;stroke-width:1.0;" x1="599" x2="641" y1="414.4766" y2="414.4766"/><line style="stroke:#A80036;stroke-width:1.0;" x1="641" x2="641" y1="414.4766" y2="427.4766"/><line style="stroke:#A80036;stroke-width:1.0;" x1="600" x2="641" y1="427.4766" y2="427.4766"/><polygon fill="#A80036" points="610,423.4766,600,427.4766,610,431.4766,606,427.4766" style="stroke:#A80036;stroke-width:1.0;"/><text fill="#000000" font-family="sans-serif" font-size="13" lengthAdjust="spacing" textLength="52" x="606" y="409.6201">画面更新</text><path d="M20,449.4766 L81,449.4766 L81,457.4766 L71,467.4766 L20,467.4766 L20,449.4766 " fill="#EEEEEE" style="stroke:#000000;stroke-width:1.0;"/><rect fill="none" height="1969.8828" style="stroke:#000000;stroke-width:2.0;" width="1153.5" x="20" y="449.4766"/><text fill="#000000" font-family="sans-serif" font-size="13" font-weight="bold" lengthAdjust="spacing" textLength="16" x="35" y="463.9717">alt</text><text fill="#000000" font-family="sans-serif" font-size="11" font-weight="bold" lengthAdjust="spacing" textLength="68" x="96" y="462.8955">[簡単モード]</text><path d="M40,474.8281 L101,474.8281 L101,482.8281 L91,492.8281 L40,492.8281 L40,474.8281 " fill="#EEEEEE" style="stroke:#000000;stroke-width:1.0;"/><rect fill="none" height="937.6719" style="stroke:#000000;stroke-width:2.0;" width="1113.5" x="40" y="474.8281"/><text fill="#000000" font-family="sans-serif" font-size="13" font-weight="bold" lengthAdjust="spacing" textLength="16" x="55" y="489.3232">alt</text><text fill="#000000" font-family="sans-serif" font-size="11" font-weight="bold" lengthAdjust="spacing" textLength="140" x="116" y="488.2471">[左手で摘まんで引っ張る]</text><path d="M50,500.1797 L155,500.1797 L155,508.1797 L145,518.1797 L50,518.1797 L50,500.1797 " fill="#EEEEEE" style="stroke:#000000;stroke-width:1.0;"/><rect fill="none" height="152.7578" style="stroke:#000000;stroke-width:2.0;" width="1093.5" x="50" y="500.1797"/><text fill="#000000" font-family="sans-serif" font-size="13" font-weight="bold" lengthAdjust="spacing" textLength="56" x="65" y="514.6748">「変形」</text><text fill="#000000" font-family="sans-serif" font-size="11" font-weight="bold" lengthAdjust="spacing" textLength="128" x="170" y="513.5986">[ポリゴンを変形させる]</text><polygon fill="#A80036" points="291,536.8828,301,540.8828,291,544.8828,295,540.8828" style="stroke:#A80036;stroke-width:1.0;"/><line style="stroke:#A80036;stroke-width:1.0;" x1="84" x2="297" y1="540.8828" y2="540.8828"/><text fill="#000000" font-family="sans-serif" font-size="13" lengthAdjust="spacing" textLength="143" x="91" y="536.0264">左手で摘まんで引っ張る</text><polygon fill="#A80036" points="456,567.2344,466,571.2344,456,575.2344,460,571.2344" style="stroke:#A80036;stroke-width:1.0;"/><line style="stroke:#A80036;stroke-width:1.0;" x1="303" x2="462" y1="571.2344" y2="571.2344"/><text fill="#000000" font-family="sans-serif" font-size="13" lengthAdjust="spacing" textLength="141" x="310" y="566.3779">onFrame() コールバック</text><line style="stroke:#A80036;stroke-width:1.0;" x1="468" x2="510" y1="601.5859" y2="601.5859"/><line style="stroke:#A80036;stroke-width:1.0;" x1="510" x2="510" y1="601.5859" y2="614.5859"/><line style="stroke:#A80036;stroke-width:1.0;" x1="469" x2="510" y1="614.5859" y2="614.5859"/><polygon fill="#A80036" points="479,610.5859,469,614.5859,479,618.5859,475,614.5859" style="stroke:#A80036;stroke-width:1.0;"/><text fill="#000000" font-family="sans-serif" font-size="13" lengthAdjust="spacing" textLength="117" x="475" y="596.7295">　頂点の座標の計算</text><polygon fill="#A80036" points="1055,640.9375,1065,644.9375,1055,648.9375,1059,644.9375" style="stroke:#A80036;stroke-width:1.0;"/><line style="stroke:#A80036;stroke-width:1.0;" x1="468" x2="1061" y1="644.9375" y2="644.9375"/><text fill="#000000" font-family="sans-serif" font-size="13" lengthAdjust="spacing" textLength="104" x="475" y="640.0811">頂点の座標を更新</text><line style="stroke:#000000;stroke-width:1.0;stroke-dasharray:2.0,2.0;" x1="40" x2="1153.5" y1="660.9375" y2="660.9375"/><text fill="#000000" font-family="sans-serif" font-size="11" font-weight="bold" lengthAdjust="spacing" textLength="176" x="45" y="672.3564">[右手で摘まんで水平にスライド]</text><path d="M50,682.7734 L155,682.7734 L155,690.7734 L145,700.7734 L50,700.7734 L50,682.7734 " fill="#EEEEEE" style="stroke:#000000;stroke-width:1.0;"/><rect fill="none" height="152.7578" style="stroke:#000000;stroke-width:2.0;" width="1093.5" x="50" y="682.7734"/><text fill="#000000" font-family="sans-serif" font-size="13" font-weight="bold" lengthAdjust="spacing" textLength="56" x="65" y="697.2686">「回転」</text><text fill="#000000" font-family="sans-serif" font-size="11" font-weight="bold" lengthAdjust="spacing" textLength="128" x="170" y="696.1924">[ポリゴンを回転させる]</text><polygon fill="#A80036" points="291,719.4766,301,723.4766,291,727.4766,295,723.4766" style="stroke:#A80036;stroke-width:1.0;"/><line style="stroke:#A80036;stroke-width:1.0;" x1="84" x2="297" y1="723.4766" y2="723.4766"/><text fill="#000000" font-family="sans-serif" font-size="13" lengthAdjust="spacing" textLength="182" x="91" y="718.6201">右手で摘まんで水平にスライド</text><polygon fill="#A80036" points="456,749.8281,466,753.8281,456,757.8281,460,753.8281" style="stroke:#A80036;stroke-width:1.0;"/><line style="stroke:#A80036;stroke-width:1.0;" x1="303" x2="462" y1="753.8281" y2="753.8281"/><text fill="#000000" font-family="sans-serif" font-size="13" lengthAdjust="spacing" textLength="141" x="310" y="748.9717">onFrame() コールバック</text><line style="stroke:#A80036;stroke-width:1.0;" x1="468" x2="510" y1="784.1797" y2="784.1797"/><line style="stroke:#A80036;stroke-width:1.0;" x1="510" x2="510" y1="784.1797" y2="797.1797"/><line style="stroke:#A80036;stroke-width:1.0;" x1="469" x2="510" y1="797.1797" y2="797.1797"/><polygon fill="#A80036" points="479,793.1797,469,797.1797,479,801.1797,475,797.1797" style="stroke:#A80036;stroke-width:1.0;"/><text fill="#000000" font-family="sans-serif" font-size="13" lengthAdjust="spacing" textLength="117" x="475" y="779.3232">　頂点の座標の計算</text><polygon fill="#A80036" points="1055,823.5313,1065,827.5313,1055,831.5313,1059,827.5313" style="stroke:#A80036;stroke-width:1.0;"/><line style="stroke:#A80036;stroke-width:1.0;" x1="468" x2="1061" y1="827.5313" y2="827.5313"/><text fill="#000000" font-family="sans-serif" font-size="13" lengthAdjust="spacing" textLength="104" x="475" y="822.6748">頂点の座標を更新</text><line style="stroke:#000000;stroke-width:1.0;stroke-dasharray:2.0,2.0;" x1="40" x2="1153.5" y1="843.5313" y2="843.5313"/><text fill="#000000" font-family="sans-serif" font-size="11" font-weight="bold" lengthAdjust="spacing" textLength="176" x="45" y="854.9502">[右手で摘まんで垂直にスライド]</text><path d="M50,865.3672 L197,865.3672 L197,873.3672 L187,883.3672 L50,883.3672 L50,865.3672 " fill="#EEEEEE" style="stroke:#000000;stroke-width:1.0;"/><rect fill="none" height="152.7578" style="stroke:#000000;stroke-width:2.0;" width="1093.5" x="50" y="865.3672"/><text fill="#000000" font-family="sans-serif" font-size="13" font-weight="bold" lengthAdjust="spacing" textLength="98" x="65" y="879.8623">「拡大・縮小」</text><text fill="#000000" font-family="sans-serif" font-size="11" font-weight="bold" lengthAdjust="spacing" textLength="164" x="212" y="878.7861">[ポリゴンを拡大・縮小させる]</text><polygon fill="#A80036" points="291,902.0703,301,906.0703,291,910.0703,295,906.0703" style="stroke:#A80036;stroke-width:1.0;"/><line style="stroke:#A80036;stroke-width:1.0;" x1="84" x2="297" y1="906.0703" y2="906.0703"/><text fill="#000000" font-family="sans-serif" font-size="13" lengthAdjust="spacing" textLength="182" x="91" y="901.2139">右手で摘まんで垂直にスライド</text><polygon fill="#A80036" points="456,932.4219,466,936.4219,456,940.4219,460,936.4219" style="stroke:#A80036;stroke-width:1.0;"/><line style="stroke:#A80036;stroke-width:1.0;" x1="303" x2="462" y1="936.4219" y2="936.4219"/><text fill="#000000" font-family="sans-serif" font-size="13" lengthAdjust="spacing" textLength="141" x="310" y="931.5654">onFrame() コールバック</text><line style="stroke:#A80036;stroke-width:1.0;" x1="468" x2="510" y1="966.7734" y2="966.7734"/><line style="stroke:#A80036;stroke-width:1.0;" x1="510" x2="510" y1="966.7734" y2="979.7734"/><line style="stroke:#A80036;stroke-width:1.0;" x1="469" x2="510" y1="979.7734" y2="979.7734"/><polygon fill="#A80036" points="479,975.7734,469,979.7734,479,983.7734,475,979.7734" style="stroke:#A80036;stroke-width:1.0;"/><text fill="#000000" font-family="sans-serif" font-size="13" lengthAdjust="spacing" textLength="117" x="475" y="961.917">　頂点の座標の計算</text><polygon fill="#A80036" points="1055,1006.125,1065,1010.125,1055,1014.125,1059,1010.125" style="stroke:#A80036;stroke-width:1.0;"/><line style="stroke:#A80036;stroke-width:1.0;" x1="468" x2="1061" y1="1010.125" y2="1010.125"/><text fill="#000000" font-family="sans-serif" font-size="13" lengthAdjust="spacing" textLength="104" x="475" y="1005.2686">頂点の座標を更新</text><line style="stroke:#000000;stroke-width:1.0;stroke-dasharray:2.0,2.0;" x1="40" x2="1153.5" y1="1026.125" y2="1026.125"/><text fill="#000000" font-family="sans-serif" font-size="11" font-weight="bold" lengthAdjust="spacing" textLength="95" x="45" y="1037.5439">[「I」キーを押す]</text><path d="M50,1047.9609 L169,1047.9609 L169,1055.9609 L159,1065.9609 L50,1065.9609 L50,1047.9609 " fill="#EEEEEE" style="stroke:#000000;stroke-width:1.0;"/><rect fill="none" height="109.4063" style="stroke:#000000;stroke-width:2.0;" width="1093.5" x="50" y="1047.9609"/><text fill="#000000" font-family="sans-serif" font-size="13" font-weight="bold" lengthAdjust="spacing" textLength="70" x="65" y="1062.4561">「初期化」</text><text fill="#000000" font-family="sans-serif" font-size="11" font-weight="bold" lengthAdjust="spacing" textLength="176" x="184" y="1061.3799">[ポリゴンの状態を初期化させる]</text><polygon fill="#A80036" points="587,1084.6641,597,1088.6641,587,1092.6641,591,1088.6641" style="stroke:#A80036;stroke-width:1.0;"/><line style="stroke:#A80036;stroke-width:1.0;" x1="84" x2="593" y1="1088.6641" y2="1088.6641"/><text fill="#000000" font-family="sans-serif" font-size="13" lengthAdjust="spacing" textLength="94" x="91" y="1083.8076">「I」キーを押す</text><polygon fill="#A80036" points="823,1115.0156,833,1119.0156,823,1123.0156,827,1119.0156" style="stroke:#A80036;stroke-width:1.0;"/><line style="stroke:#A80036;stroke-width:1.0;" x1="599" x2="829" y1="1119.0156" y2="1119.0156"/><text fill="#000000" font-family="sans-serif" font-size="13" lengthAdjust="spacing" textLength="212" x="606" y="1114.1592">表示中のポリゴンのInit関数をコール</text><polygon fill="#A80036" points="1055,1145.3672,1065,1149.3672,1055,1153.3672,1059,1149.3672" style="stroke:#A80036;stroke-width:1.0;"/><line style="stroke:#A80036;stroke-width:1.0;" x1="835" x2="1061" y1="1149.3672" y2="1149.3672"/><text fill="#000000" font-family="sans-serif" font-size="13" lengthAdjust="spacing" textLength="208" x="842" y="1144.5107">頂点の座標を更新（最初の状態に）</text><line style="stroke:#000000;stroke-width:1.0;stroke-dasharray:2.0,2.0;" x1="40" x2="1153.5" y1="1165.3672" y2="1165.3672"/><text fill="#000000" font-family="sans-serif" font-size="11" font-weight="bold" lengthAdjust="spacing" textLength="195" x="45" y="1176.7861">[「S」キーを押す（ポリゴン切替）]</text><path d="M50,1187.2031 L155,1187.2031 L155,1195.2031 L145,1205.2031 L50,1205.2031 L50,1187.2031 " fill="#EEEEEE" style="stroke:#000000;stroke-width:1.0;"/><rect fill="none" height="109.4063" style="stroke:#000000;stroke-width:2.0;" width="1093.5" x="50" y="1187.2031"/><text fill="#000000" font-family="sans-serif" font-size="13" font-weight="bold" lengthAdjust="spacing" textLength="56" x="65" y="1201.6982">「切替」</text><text fill="#000000" font-family="sans-serif" font-size="11" font-weight="bold" lengthAdjust="spacing" textLength="164" x="170" y="1200.6221">[ポリゴンの種類を切替させる]</text><polygon fill="#A80036" points="587,1223.9063,597,1227.9063,587,1231.9063,591,1227.9063" style="stroke:#A80036;stroke-width:1.0;"/><line style="stroke:#A80036;stroke-width:1.0;" x1="84" x2="593" y1="1227.9063" y2="1227.9063"/><text fill="#000000" font-family="sans-serif" font-size="13" lengthAdjust="spacing" textLength="94" x="91" y="1223.0498">「I」キーを押す</text><polygon fill="#A80036" points="823,1254.2578,833,1258.2578,823,1262.2578,827,1258.2578" style="stroke:#A80036;stroke-width:1.0;"/><line style="stroke:#A80036;stroke-width:1.0;" x1="599" x2="829" y1="1258.2578" y2="1258.2578"/><text fill="#000000" font-family="sans-serif" font-size="13" lengthAdjust="spacing" textLength="186" x="606" y="1253.4014">次のポリゴンのInit関数をコール</text><polygon fill="#A80036" points="1055,1284.6094,1065,1288.6094,1055,1292.6094,1059,1288.6094" style="stroke:#A80036;stroke-width:1.0;"/><line style="stroke:#A80036;stroke-width:1.0;" x1="835" x2="1061" y1="1288.6094" y2="1288.6094"/><text fill="#000000" font-family="sans-serif" font-size="13" lengthAdjust="spacing" textLength="104" x="842" y="1283.7529">頂点の座標を更新</text><line style="stroke:#000000;stroke-width:1.0;stroke-dasharray:2.0,2.0;" x1="40" x2="1153.5" y1="1304.6094" y2="1304.6094"/><text fill="#000000" font-family="sans-serif" font-size="11" font-weight="bold" lengthAdjust="spacing" textLength="187" x="45" y="1316.0283">[「m」キーを押す（モード切替）]</text><path d="M50,1326.4453 L197,1326.4453 L197,1334.4453 L187,1344.4453 L50,1344.4453 L50,1326.4453 " fill="#EEEEEE" style="stroke:#000000;stroke-width:1.0;"/><rect fill="none" height="79.0547" style="stroke:#000000;stroke-width:2.0;" width="1093.5" x="50" y="1326.4453"/><text fill="#000000" font-family="sans-serif" font-size="13" font-weight="bold" lengthAdjust="spacing" textLength="98" x="65" y="1340.9404">「モード切替」</text><text fill="#000000" font-family="sans-serif" font-size="11" font-weight="bold" lengthAdjust="spacing" textLength="116" x="212" y="1339.8643">[モードを切替させる]</text><polygon fill="#A80036" points="587,1363.1484,597,1367.1484,587,1371.1484,591,1367.1484" style="stroke:#A80036;stroke-width:1.0;"/><line style="stroke:#A80036;stroke-width:1.0;" x1="84" x2="593" y1="1367.1484" y2="1367.1484"/><text fill="#000000" font-family="sans-serif" font-size="13" lengthAdjust="spacing" textLength="102" x="91" y="1362.292">「m」キーを押す</text><polygon fill="#A80036" points="1055,1393.5,1065,1397.5,1055,1401.5,1059,1397.5" style="stroke:#A80036;stroke-width:1.0;"/><line style="stroke:#A80036;stroke-width:1.0;" x1="599" x2="1061" y1="1397.5" y2="1397.5"/><text fill="#000000" font-family="sans-serif" font-size="13" lengthAdjust="spacing" textLength="156" x="606" y="1392.6436">モードを普通モードに変更</text><line style="stroke:#000000;stroke-width:1.0;stroke-dasharray:2.0,2.0;" x1="20" x2="1173.5" y1="1420.5" y2="1420.5"/><text fill="#000000" font-family="sans-serif" font-size="11" font-weight="bold" lengthAdjust="spacing" textLength="68" x="25" y="1431.9189">[普通モード]</text><path d="M30,1442.3359 L91,1442.3359 L91,1450.3359 L81,1460.3359 L30,1460.3359 L30,1442.3359 " fill="#EEEEEE" style="stroke:#000000;stroke-width:1.0;"/><rect fill="none" height="970.0234" style="stroke:#000000;stroke-width:2.0;" width="1133.5" x="30" y="1442.3359"/><text fill="#000000" font-family="sans-serif" font-size="13" font-weight="bold" lengthAdjust="spacing" textLength="16" x="45" y="1456.8311">alt</text><text fill="#000000" font-family="sans-serif" font-size="11" font-weight="bold" lengthAdjust="spacing" textLength="164" x="106" y="1455.7549">[左手で摘まみながらスライド]</text><path d="M50,1467.6875 L155,1467.6875 L155,1475.6875 L145,1485.6875 L50,1485.6875 L50,1467.6875 " fill="#EEEEEE" style="stroke:#000000;stroke-width:1.0;"/><rect fill="none" height="152.7578" style="stroke:#000000;stroke-width:2.0;" width="1093.5" x="50" y="1467.6875"/><text fill="#000000" font-family="sans-serif" font-size="13" font-weight="bold" lengthAdjust="spacing" textLength="56" x="65" y="1482.1826">「変形」</text><text fill="#000000" font-family="sans-serif" font-size="11" font-weight="bold" lengthAdjust="spacing" textLength="128" x="170" y="1481.1064">[ポリゴンを変形させる]</text><polygon fill="#A80036" points="291,1504.3906,301,1508.3906,291,1512.3906,295,1508.3906" style="stroke:#A80036;stroke-width:1.0;"/><line style="stroke:#A80036;stroke-width:1.0;" x1="84" x2="297" y1="1508.3906" y2="1508.3906"/><text fill="#000000" font-family="sans-serif" font-size="13" lengthAdjust="spacing" textLength="195" x="91" y="1503.5342">左手で摘まみながらスライドする</text><polygon fill="#A80036" points="456,1534.7422,466,1538.7422,456,1542.7422,460,1538.7422" style="stroke:#A80036;stroke-width:1.0;"/><line style="stroke:#A80036;stroke-width:1.0;" x1="303" x2="462" y1="1538.7422" y2="1538.7422"/><text fill="#000000" font-family="sans-serif" font-size="13" lengthAdjust="spacing" textLength="141" x="310" y="1533.8857">onFrame() コールバック</text><line style="stroke:#A80036;stroke-width:1.0;" x1="468" x2="510" y1="1569.0938" y2="1569.0938"/><line style="stroke:#A80036;stroke-width:1.0;" x1="510" x2="510" y1="1569.0938" y2="1582.0938"/><line style="stroke:#A80036;stroke-width:1.0;" x1="469" x2="510" y1="1582.0938" y2="1582.0938"/><polygon fill="#A80036" points="479,1578.0938,469,1582.0938,479,1586.0938,475,1582.0938" style="stroke:#A80036;stroke-width:1.0;"/><text fill="#000000" font-family="sans-serif" font-size="13" lengthAdjust="spacing" textLength="104" x="475" y="1564.2373">　頂点座標の計算</text><polygon fill="#A80036" points="1055,1608.4453,1065,1612.4453,1055,1616.4453,1059,1612.4453" style="stroke:#A80036;stroke-width:1.0;"/><line style="stroke:#A80036;stroke-width:1.0;" x1="468" x2="1061" y1="1612.4453" y2="1612.4453"/><text fill="#000000" font-family="sans-serif" font-size="13" lengthAdjust="spacing" textLength="104" x="475" y="1607.5889">頂点の座標を更新</text><line style="stroke:#000000;stroke-width:1.0;stroke-dasharray:2.0,2.0;" x1="30" x2="1163.5" y1="1628.4453" y2="1628.4453"/><text fill="#000000" font-family="sans-serif" font-size="11" font-weight="bold" lengthAdjust="spacing" textLength="164" x="35" y="1639.8643">[左手で摘まみながらスライド]</text><path d="M50,1650.2813 L155,1650.2813 L155,1658.2813 L145,1668.2813 L50,1668.2813 L50,1650.2813 " fill="#EEEEEE" style="stroke:#000000;stroke-width:1.0;"/><rect fill="none" height="152.7578" style="stroke:#000000;stroke-width:2.0;" width="1093.5" x="50" y="1650.2813"/><text fill="#000000" font-family="sans-serif" font-size="13" font-weight="bold" lengthAdjust="spacing" textLength="56" x="65" y="1664.7764">「回転」</text><text fill="#000000" font-family="sans-serif" font-size="11" font-weight="bold" lengthAdjust="spacing" textLength="128" x="170" y="1663.7002">[ポリゴンを回転させる]</text><polygon fill="#A80036" points="291,1686.9844,301,1690.9844,291,1694.9844,295,1690.9844" style="stroke:#A80036;stroke-width:1.0;"/><line style="stroke:#A80036;stroke-width:1.0;" x1="84" x2="297" y1="1690.9844" y2="1690.9844"/><text fill="#000000" font-family="sans-serif" font-size="13" lengthAdjust="spacing" textLength="195" x="91" y="1686.1279">左手で摘まみながらスライドする</text><polygon fill="#A80036" points="456,1717.3359,466,1721.3359,456,1725.3359,460,1721.3359" style="stroke:#A80036;stroke-width:1.0;"/><line style="stroke:#A80036;stroke-width:1.0;" x1="303" x2="462" y1="1721.3359" y2="1721.3359"/><text fill="#000000" font-family="sans-serif" font-size="13" lengthAdjust="spacing" textLength="141" x="310" y="1716.4795">onFrame() コールバック</text><line style="stroke:#A80036;stroke-width:1.0;" x1="468" x2="510" y1="1751.6875" y2="1751.6875"/><line style="stroke:#A80036;stroke-width:1.0;" x1="510" x2="510" y1="1751.6875" y2="1764.6875"/><line style="stroke:#A80036;stroke-width:1.0;" x1="469" x2="510" y1="1764.6875" y2="1764.6875"/><polygon fill="#A80036" points="479,1760.6875,469,1764.6875,479,1768.6875,475,1764.6875" style="stroke:#A80036;stroke-width:1.0;"/><text fill="#000000" font-family="sans-serif" font-size="13" lengthAdjust="spacing" textLength="104" x="475" y="1746.8311">　頂点座標の計算</text><polygon fill="#A80036" points="1055,1791.0391,1065,1795.0391,1055,1799.0391,1059,1795.0391" style="stroke:#A80036;stroke-width:1.0;"/><line style="stroke:#A80036;stroke-width:1.0;" x1="468" x2="1061" y1="1795.0391" y2="1795.0391"/><text fill="#000000" font-family="sans-serif" font-size="13" lengthAdjust="spacing" textLength="104" x="475" y="1790.1826">頂点の座標を更新</text><line style="stroke:#000000;stroke-width:1.0;stroke-dasharray:2.0,2.0;" x1="30" x2="1163.5" y1="1811.0391" y2="1811.0391"/><text fill="#000000" font-family="sans-serif" font-size="11" font-weight="bold" lengthAdjust="spacing" textLength="152" x="35" y="1822.458">[両手の人差し指を近づける]</text><path d="M40,1832.875 L113,1832.875 L113,1840.875 L103,1850.875 L40,1850.875 L40,1832.875 " fill="#EEEEEE" style="stroke:#000000;stroke-width:1.0;"/><rect fill="none" height="185.1094" style="stroke:#000000;stroke-width:2.0;" width="1113.5" x="40" y="1832.875"/><text fill="#000000" font-family="sans-serif" font-size="13" font-weight="bold" lengthAdjust="spacing" textLength="28" x="55" y="1847.3701">loop</text><text fill="#000000" font-family="sans-serif" font-size="11" font-weight="bold" lengthAdjust="spacing" textLength="164" x="128" y="1846.2939">[人差し指と親指が近づくまで]</text><path d="M50,1858.2266 L197,1858.2266 L197,1866.2266 L187,1876.2266 L50,1876.2266 L50,1858.2266 " fill="#EEEEEE" style="stroke:#000000;stroke-width:1.0;"/><rect fill="none" height="152.7578" style="stroke:#000000;stroke-width:2.0;" width="1093.5" x="50" y="1858.2266"/><text fill="#000000" font-family="sans-serif" font-size="13" font-weight="bold" lengthAdjust="spacing" textLength="98" x="65" y="1872.7217">「拡大・縮小」</text><text fill="#000000" font-family="sans-serif" font-size="11" font-weight="bold" lengthAdjust="spacing" textLength="356" x="212" y="1871.6455">[ポリゴンを拡大縮小させる。両手の人差し指の幅で調節できる。]</text><polygon fill="#A80036" points="291,1894.9297,301,1898.9297,291,1902.9297,295,1898.9297" style="stroke:#A80036;stroke-width:1.0;"/><line style="stroke:#A80036;stroke-width:1.0;" x1="84" x2="297" y1="1898.9297" y2="1898.9297"/><text fill="#000000" font-family="sans-serif" font-size="13" lengthAdjust="spacing" textLength="182" x="91" y="1894.0732">両手の人差し指の距離を変える</text><polygon fill="#A80036" points="456,1925.2813,466,1929.2813,456,1933.2813,460,1929.2813" style="stroke:#A80036;stroke-width:1.0;"/><line style="stroke:#A80036;stroke-width:1.0;" x1="303" x2="462" y1="1929.2813" y2="1929.2813"/><text fill="#000000" font-family="sans-serif" font-size="13" lengthAdjust="spacing" textLength="141" x="310" y="1924.4248">onFrame() コールバック</text><line style="stroke:#A80036;stroke-width:1.0;" x1="468" x2="510" y1="1959.6328" y2="1959.6328"/><line style="stroke:#A80036;stroke-width:1.0;" x1="510" x2="510" y1="1959.6328" y2="1972.6328"/><line style="stroke:#A80036;stroke-width:1.0;" x1="469" x2="510" y1="1972.6328" y2="1972.6328"/><polygon fill="#A80036" points="479,1968.6328,469,1972.6328,479,1976.6328,475,1972.6328" style="stroke:#A80036;stroke-width:1.0;"/><text fill="#000000" font-family="sans-serif" font-size="13" lengthAdjust="spacing" textLength="104" x="475" y="1954.7764">　頂点座標の計算</text><polygon fill="#A80036" points="1055,1998.9844,1065,2002.9844,1055,2006.9844,1059,2002.9844" style="stroke:#A80036;stroke-width:1.0;"/><line style="stroke:#A80036;stroke-width:1.0;" x1="468" x2="1061" y1="2002.9844" y2="2002.9844"/><text fill="#000000" font-family="sans-serif" font-size="13" lengthAdjust="spacing" textLength="104" x="475" y="1998.1279">頂点の座標を更新</text><line style="stroke:#000000;stroke-width:1.0;stroke-dasharray:2.0,2.0;" x1="30" x2="1163.5" y1="2025.9844" y2="2025.9844"/><text fill="#000000" font-family="sans-serif" font-size="11" font-weight="bold" lengthAdjust="spacing" textLength="95" x="35" y="2037.4033">[「I」キーを押す]</text><path d="M50,2047.8203 L169,2047.8203 L169,2055.8203 L159,2065.8203 L50,2065.8203 L50,2047.8203 " fill="#EEEEEE" style="stroke:#000000;stroke-width:1.0;"/><rect fill="none" height="109.4063" style="stroke:#000000;stroke-width:2.0;" width="1093.5" x="50" y="2047.8203"/><text fill="#000000" font-family="sans-serif" font-size="13" font-weight="bold" lengthAdjust="spacing" textLength="70" x="65" y="2062.3154">「初期化」</text><text fill="#000000" font-family="sans-serif" font-size="11" font-weight="bold" lengthAdjust="spacing" textLength="176" x="184" y="2061.2393">[ポリゴンの状態を初期化させる]</text><polygon fill="#A80036" points="587,2084.5234,597,2088.5234,587,2092.5234,591,2088.5234" style="stroke:#A80036;stroke-width:1.0;"/><line style="stroke:#A80036;stroke-width:1.0;" x1="84" x2="593" y1="2088.5234" y2="2088.5234"/><text fill="#000000" font-family="sans-serif" font-size="13" lengthAdjust="spacing" textLength="94" x="91" y="2083.667">「I」キーを押す</text><polygon fill="#A80036" points="823,2114.875,833,2118.875,823,2122.875,827,2118.875" style="stroke:#A80036;stroke-width:1.0;"/><line style="stroke:#A80036;stroke-width:1.0;" x1="599" x2="829" y1="2118.875" y2="2118.875"/><text fill="#000000" font-family="sans-serif" font-size="13" lengthAdjust="spacing" textLength="212" x="606" y="2114.0186">表示中のポリゴンのInit関数をコール</text><polygon fill="#A80036" points="1055,2145.2266,1065,2149.2266,1055,2153.2266,1059,2149.2266" style="stroke:#A80036;stroke-width:1.0;"/><line style="stroke:#A80036;stroke-width:1.0;" x1="835" x2="1061" y1="2149.2266" y2="2149.2266"/><text fill="#000000" font-family="sans-serif" font-size="13" lengthAdjust="spacing" textLength="208" x="842" y="2144.3701">頂点の座標を更新（最初の状態に）</text><line style="stroke:#000000;stroke-width:1.0;stroke-dasharray:2.0,2.0;" x1="30" x2="1163.5" y1="2165.2266" y2="2165.2266"/><text fill="#000000" font-family="sans-serif" font-size="11" font-weight="bold" lengthAdjust="spacing" textLength="195" x="35" y="2176.6455">[「S」キーを押す（ポリゴン切替）]</text><path d="M50,2187.0625 L211,2187.0625 L211,2195.0625 L201,2205.0625 L50,2205.0625 L50,2187.0625 " fill="#EEEEEE" style="stroke:#000000;stroke-width:1.0;"/><rect fill="none" height="109.4063" style="stroke:#000000;stroke-width:2.0;" width="1093.5" x="50" y="2187.0625"/><text fill="#000000" font-family="sans-serif" font-size="13" font-weight="bold" lengthAdjust="spacing" textLength="112" x="65" y="2201.5576">「ポリゴン切替」</text><text fill="#000000" font-family="sans-serif" font-size="11" font-weight="bold" lengthAdjust="spacing" textLength="164" x="226" y="2200.4814">[ポリゴンの種類を切替させる]</text><polygon fill="#A80036" points="587,2223.7656,597,2227.7656,587,2231.7656,591,2227.7656" style="stroke:#A80036;stroke-width:1.0;"/><line style="stroke:#A80036;stroke-width:1.0;" x1="84" x2="593" y1="2227.7656" y2="2227.7656"/><text fill="#000000" font-family="sans-serif" font-size="13" lengthAdjust="spacing" textLength="94" x="91" y="2222.9092">「I」キーを押す</text><polygon fill="#A80036" points="823,2254.1172,833,2258.1172,823,2262.1172,827,2258.1172" style="stroke:#A80036;stroke-width:1.0;"/><line style="stroke:#A80036;stroke-width:1.0;" x1="599" x2="829" y1="2258.1172" y2="2258.1172"/><text fill="#000000" font-family="sans-serif" font-size="13" lengthAdjust="spacing" textLength="186" x="606" y="2253.2607">次のポリゴンのInit関数をコール</text><polygon fill="#A80036" points="1055,2284.4688,1065,2288.4688,1055,2292.4688,1059,2288.4688" style="stroke:#A80036;stroke-width:1.0;"/><line style="stroke:#A80036;stroke-width:1.0;" x1="835" x2="1061" y1="2288.4688" y2="2288.4688"/><text fill="#000000" font-family="sans-serif" font-size="13" lengthAdjust="spacing" textLength="104" x="842" y="2283.6123">頂点の座標を更新</text><line style="stroke:#000000;stroke-width:1.0;stroke-dasharray:2.0,2.0;" x1="30" x2="1163.5" y1="2304.4688" y2="2304.4688"/><text fill="#000000" font-family="sans-serif" font-size="11" font-weight="bold" lengthAdjust="spacing" textLength="187" x="35" y="2315.8877">[「m」キーを押す（モード切替）]</text><path d="M50,2326.3047 L197,2326.3047 L197,2334.3047 L187,2344.3047 L50,2344.3047 L50,2326.3047 " fill="#EEEEEE" style="stroke:#000000;stroke-width:1.0;"/><rect fill="none" height="79.0547" style="stroke:#000000;stroke-width:2.0;" width="1093.5" x="50" y="2326.3047"/><text fill="#000000" font-family="sans-serif" font-size="13" font-weight="bold" lengthAdjust="spacing" textLength="98" x="65" y="2340.7998">「モード切替」</text><text fill="#000000" font-family="sans-serif" font-size="11" font-weight="bold" lengthAdjust="spacing" textLength="116" x="212" y="2339.7236">[モードを切替させる]</text><polygon fill="#A80036" points="587,2363.0078,597,2367.0078,587,2371.0078,591,2367.0078" style="stroke:#A80036;stroke-width:1.0;"/><line style="stroke:#A80036;stroke-width:1.0;" x1="84" x2="593" y1="2367.0078" y2="2367.0078"/><text fill="#000000" font-family="sans-serif" font-size="13" lengthAdjust="spacing" textLength="102" x="91" y="2362.1514">「m」キーを押す</text><polygon fill="#A80036" points="1055,2393.3594,1065,2397.3594,1055,2401.3594,1059,2397.3594" style="stroke:#A80036;stroke-width:1.0;"/><line style="stroke:#A80036;stroke-width:1.0;" x1="599" x2="1061" y1="2397.3594" y2="2397.3594"/><text fill="#000000" font-family="sans-serif" font-size="13" lengthAdjust="spacing" textLength="156" x="606" y="2392.5029">モードを簡単モードに変更</text><!--MD5=[70b7ea70db1c3f71079d28784e50e48b]
@startuml sequencePolygonApp

actor "戸谷君" as actor
participant "LeapMotion" as leapmotion
participant "SampleListner" as SampleListner
participant "freeglut" as freeglut
participant "initializePolygon" as initializePolygon
participant "CommonVariables" as CommonVariables
participant "main" as main


actor -> main : 呼び出す
main -> leapmotion : addListenerでleapmotionにSampleListnerを登録
leapmotion -> initializePolygon : InitBall()をコール
initializePolygon -> CommonVariables : 頂点の座標を更新
main -> freeglut : glutInit()で初期化

group loop\n(SampleListnerとfreeglutによりアプリが終わるまで続く)
    group ポリゴンの表示
        CommonVariables -> freeglut : 頂点の座標を取得
        freeglut -> freeglut : 描画の設定
        freeglut -> freeglut : 画面更新
    end
    alt 簡単モード
        alt 左手で摘まんで引っ張る
            group 「変形」 [ポリゴンを変形させる]
                actor -> leapmotion : 左手で摘まんで引っ張る
                leapmotion -> SampleListner : onFrame() コールバック
                SampleListner -> SampleListner :　頂点の座標の計算
                SampleListner -> CommonVariables : 頂点の座標を更新
            end
                
        else 右手で摘まんで水平にスライド
            group 「回転」 [ポリゴンを回転させる]
                actor -> leapmotion : 右手で摘まんで水平にスライド
                leapmotion -> SampleListner : onFrame() コールバック
                SampleListner -> SampleListner :　頂点の座標の計算
                SampleListner -> CommonVariables : 頂点の座標を更新
            end
            
        else 右手で摘まんで垂直にスライド
            group 「拡大・縮小」 [ポリゴンを拡大・縮小させる]
                actor -> leapmotion : 右手で摘まんで垂直にスライド
                leapmotion -> SampleListner : onFrame() コールバック
                SampleListner -> SampleListner :　頂点の座標の計算
                SampleListner -> CommonVariables : 頂点の座標を更新
            end
            
        else 「I」キーを押す
            group 「初期化」 [ポリゴンの状態を初期化させる]
                actor -> freeglut : 「I」キーを押す
                freeglut -> initializePolygon : 表示中のポリゴンのInit関数をコール
                initializePolygon -> CommonVariables : 頂点の座標を更新（最初の状態に）
            end

        else 「S」キーを押す（ポリゴン切替）
            group 「切替」 [ポリゴンの種類を切替させる]
                actor -> freeglut : 「I」キーを押す
                freeglut -> initializePolygon : 次のポリゴンのInit関数をコール
                initializePolygon -> CommonVariables : 頂点の座標を更新
            end
        else 「m」キーを押す（モード切替）
            group 「モード切替」 [モードを切替させる]
                actor -> freeglut : 「m」キーを押す
                freeglut -> CommonVariables : モードを普通モードに変更
            end
        end


    else 普通モード
        alt 左手で摘まみながらスライド
            group 「変形」 [ポリゴンを変形させる]
                actor -> leapmotion : 左手で摘まみながらスライドする
                leapmotion -> SampleListner : onFrame() コールバック
                SampleListner -> SampleListner :　頂点座標の計算
                SampleListner -> CommonVariables : 頂点の座標を更新
            end

        else 左手で摘まみながらスライド
            group 「回転」 [ポリゴンを回転させる]
                actor -> leapmotion : 左手で摘まみながらスライドする
                leapmotion -> SampleListner : onFrame() コールバック
                SampleListner -> SampleListner :　頂点座標の計算
                SampleListner -> CommonVariables : 頂点の座標を更新
            end

        else 両手の人差し指を近づける
            loop 人差し指と親指が近づくまで
                group 「拡大・縮小」 [ポリゴンを拡大縮小させる。両手の人差し指の幅で調節できる。]
                    actor -> leapmotion : 両手の人差し指の距離を変える
                    leapmotion -> SampleListner : onFrame() コールバック
                    SampleListner -> SampleListner :　頂点座標の計算
                    SampleListner -> CommonVariables : 頂点の座標を更新
                end
            end
            
        else 「I」キーを押す
            group 「初期化」 [ポリゴンの状態を初期化させる]
                actor -> freeglut : 「I」キーを押す
                freeglut -> initializePolygon : 表示中のポリゴンのInit関数をコール
                initializePolygon -> CommonVariables : 頂点の座標を更新（最初の状態に）
            end

        else 「S」キーを押す（ポリゴン切替）
            group 「ポリゴン切替」 [ポリゴンの種類を切替させる]
                actor -> freeglut : 「I」キーを押す
                freeglut -> initializePolygon : 次のポリゴンのInit関数をコール
                initializePolygon -> CommonVariables : 頂点の座標を更新
            end
        else 「m」キーを押す（モード切替）
            group 「モード切替」 [モードを切替させる]
                actor -> freeglut : 「m」キーを押す
                freeglut -> CommonVariables : モードを簡単モードに変更
            end
        end
    end
    
    

end


@enduml

PlantUML version 1.2022.0(Wed Jan 12 01:16:42 JST 2022)
(GPL source distribution)
Java Runtime: Java(TM) SE Runtime Environment
JVM: Java HotSpot(TM) 64-Bit Server VM
Default Encoding: MS932
Language: en
Country: US
--></g></svg>